<?xml version="1.0" standalone="no"?>
<!DOCTYPE svg PUBLIC "-//W3C//DTD SVG 20010904//EN"
 "http://www.w3.org/TR/2001/REC-SVG-20010904/DTD/svg10.dtd">
<svg version="1.0" xmlns="http://www.w3.org/2000/svg"
 width="512.000000pt" height="512.000000pt" viewBox="0 0 512.000000 512.000000"
 preserveAspectRatio="xMidYMid meet">
<metadata>
Created by potrace 1.11, written by Peter Selinger 2001-2013
</metadata>
<g transform="translate(0.000000,512.000000) scale(0.100000,-0.100000)"
fill="#000000" stroke="none">
<path d="M0 3670 l0 -1400 43 0 44 0 16 -137 c10 -76 17 -144 17 -150 0 -9
-19 -13 -60 -13 -53 0 -60 -2 -60 -20 0 -18 7 -20 65 -20 37 0 65 -4 65 -10 0
-6 -28 -10 -65 -10 l-65 0 0 -461 c0 -432 1 -460 18 -458 30 3 43 -1 38 -10
-3 -4 -17 -6 -31 -3 -22 4 -25 1 -25 -22 0 -14 5 -27 10 -27 42 -6 77 -4 88 4
9 7 11 5 6 -7 -4 -11 -16 -17 -33 -16 -14 1 -37 1 -51 0 -23 -1 -23 -2 -5 -9
11 -5 23 -7 26 -5 4 2 9 -6 13 -19 4 -16 -2 -29 -24 -50 l-30 -28 0 -375 1
-375 702 2 c513 1 706 4 716 12 8 7 12 7 9 2 -5 -8 199 -11 663 -12 416 -1
667 2 664 8 -4 5 -1 9 4 9 6 0 11 -4 11 -10 0 -5 20 -10 45 -10 l46 0 -16 30
c-8 16 -23 34 -32 40 -14 8 -6 9 32 4 28 -3 61 -6 75 -5 l25 0 -25 -13 c-16
-10 -30 -11 -42 -5 -25 13 -33 -8 -12 -32 9 -10 24 -19 33 -18 12 0 11 3 -4 9
-19 8 -19 9 3 9 12 1 22 -3 22 -9 0 -6 133 -9 364 -7 242 1 362 5 358 12 -3 5
1 5 9 -2 20 -16 291 -16 301 0 6 9 8 9 8 0 0 -10 98 -13 455 -13 357 0 455 3
455 13 0 9 2 9 8 0 5 -8 46 -12 124 -12 l117 -1 0 245 0 245 -25 0 c-13 0 -24
4 -24 9 0 4 11 6 25 3 23 -4 25 -1 25 29 0 26 -3 30 -12 21 -16 -16 -61 -16
-56 0 3 7 11 13 19 14 53 4 50 -10 49 184 -1 99 -5 178 -8 177 -8 -2 -12 7
-12 24 0 5 4 7 10 4 6 -4 9 14 9 45 -1 39 -5 50 -18 51 -14 0 -14 1 -1 7 18 8
23 54 6 64 -8 6 -8 8 2 8 19 0 15 48 -5 53 -16 4 -16 5 -1 6 15 1 17 29 18
321 l1 319 -73 3 c-70 3 -73 4 -75 28 -1 14 0 19 3 13 4 -9 29 -13 75 -13 55
0 69 3 69 15 0 12 -15 15 -75 15 -55 0 -73 3 -70 13 8 22 45 245 45 271 0 24
3 26 50 26 l50 0 0 1196 0 1196 -32 -20 c-100 -61 -218 -132 -277 -166 -36
-21 -146 -90 -243 -152 -97 -62 -214 -134 -260 -160 -46 -26 -98 -58 -115 -72
l-33 -24 0 -193 c0 -105 3 -300 7 -432 l6 -240 76 4 c42 3 119 8 171 13 127
12 129 10 201 -161 32 -74 69 -162 84 -195 l26 -61 77 -16 c42 -9 107 -22 143
-28 37 -6 80 -19 98 -30 27 -16 31 -25 31 -59 0 -25 -4 -39 -10 -35 -5 3 -10
19 -10 36 0 16 -4 29 -10 29 -6 0 -11 -45 -12 -112 l-1 -113 -6 107 c-4 65
-11 112 -18 120 -10 9 -13 8 -13 -8 0 -16 -2 -17 -10 -4 -6 10 -10 11 -10 3 0
-7 -9 -13 -20 -13 -11 0 -19 5 -17 11 1 6 -4 14 -10 16 -9 3 -13 -8 -14 -39
-1 -38 -2 -40 -9 -16 -14 48 -20 51 -46 23 -13 -14 -24 -31 -24 -38 0 -8 -3
-8 -12 1 -20 20 -27 14 -31 -25 l-3 -38 -9 34 c-7 29 -9 31 -18 15 -6 -11 -10
-20 -9 -22 2 -1 -4 -10 -13 -18 -8 -9 -15 -22 -15 -30 0 -8 -4 -14 -10 -14 -5
0 -10 -5 -10 -11 0 -5 5 -7 10 -4 16 10 12 -19 -10 -66 -16 -36 -20 -39 -20
-20 0 20 -3 22 -12 13 -8 -8 -12 -40 -12 -82 0 -38 -1 -68 -3 -66 -2 2 -9 25
-16 51 -11 44 -15 48 -62 66 -77 29 -95 33 -65 14 16 -10 18 -14 6 -11 -27 9
-96 24 -138 31 -41 6 -45 14 -25 53 73 146 105 217 100 225 -6 10 -34 -19 -49
-53 l-12 -25 -10 35 -10 35 -1 -49 c-1 -60 -9 -55 -21 11 l-8 48 -2 -45 c-1
-35 -3 -41 -10 -25 -7 16 -9 13 -9 -17 -2 -77 -16 -74 -27 7 l-11 80 -3 -110
c-2 -112 -16 -109 -19 4 -1 72 -11 60 -13 -15 0 -40 -3 -53 -9 -39 -6 15 -8
11 -9 -20 0 -22 -7 -51 -14 -65 -13 -23 -14 -22 -21 35 -10 91 -13 89 -14 -8
-1 -80 1 -88 17 -83 54 16 133 17 188 3 135 -35 190 -47 209 -44 17 2 20 -5
23 -43 1 -25 -1 -40 -6 -33 -5 8 -12 2 -22 -20 l-14 -32 -9 35 c-8 30 -10 32
-17 15 -4 -11 -6 -23 -3 -27 2 -5 0 -8 -5 -8 -5 0 -14 10 -20 23 -6 12 -11 16
-11 10 -1 -16 -37 -53 -51 -53 -5 0 -10 7 -10 15 0 34 -20 12 -21 -22 l-1 -38
-9 32 c-12 40 -29 52 -30 21 -1 -18 -2 -19 -6 -5 -5 18 -5 18 -19 0 -13 -17
-15 -17 -28 0 -18 23 -24 22 -29 -5 -3 -22 -4 -21 -17 7 l-14 30 -4 -25 c-4
-23 -5 -24 -13 -5 -7 19 -8 19 -8 -2 -1 -14 -7 -23 -16 -23 -9 0 -19 10 -24
23 -8 21 -9 20 -19 -13 l-10 -35 -7 33 c-9 39 -25 52 -26 20 0 -13 -3 -17 -6
-11 -3 10 -8 9 -20 -2 -16 -17 -33 -11 -33 11 0 24 -20 5 -21 -19 l0 -22 -9
23 c-10 24 -26 29 -33 10 -4 -10 -6 -9 -6 1 -1 11 -4 11 -16 1 -12 -10 -19
-10 -27 -2 -18 18 -28 14 -28 -8 0 -11 -5 -20 -11 -20 -5 0 -8 4 -5 9 3 4 -1
17 -9 27 -9 12 -14 14 -15 6 0 -7 -4 -10 -10 -7 -5 3 -10 1 -10 -6 0 -7 -10
-9 -30 -5 -22 4 -30 2 -30 -9 0 -8 -4 -15 -10 -15 -5 0 -10 9 -10 20 0 11 -4
20 -10 20 -5 0 -10 -4 -10 -9 0 -5 -17 -8 -37 -7 -21 1 -41 -3 -45 -8 -6 -8
-10 -8 -15 -1 -9 12 -103 14 -103 3 0 -5 -4 -8 -10 -8 -5 0 -10 7 -10 15 0 18
-16 20 -23 2 -3 -6 -6 -3 -7 8 -1 18 -1 19 -11 3 -13 -23 -39 -23 -39 -1 0 15
-2 15 -19 -1 -15 -13 -20 -14 -24 -4 -4 10 -8 10 -16 -2 -6 -9 -11 -10 -11 -3
0 6 -9 9 -20 6 -11 -3 -20 0 -20 6 0 6 -6 11 -14 11 -8 0 -17 6 -19 13 -3 6
-6 -6 -7 -28 -1 -34 -3 -37 -10 -17 -6 15 -18 22 -35 22 -15 0 -35 4 -45 10
-14 7 -20 6 -25 -8 -6 -15 -8 -14 -20 8 -8 14 -14 20 -15 14 0 -17 -49 -27
-65 -14 -9 8 -14 6 -20 -7 -6 -16 -8 -15 -20 7 -8 14 -14 19 -15 11 0 -7 -6
-11 -15 -7 -8 3 -15 1 -15 -5 0 -6 -4 -8 -9 -5 -5 4 -11 0 -14 -6 -2 -7 -8 0
-12 16 l-8 29 -12 -29 -12 -29 -8 27 c-5 20 -14 28 -29 28 -14 0 -17 -3 -8 -8
9 -6 6 -12 -12 -20 -19 -8 -25 -8 -30 3 -3 8 0 16 7 19 7 3 3 5 -8 3 -11 -1
-22 -12 -25 -27 -5 -20 -7 -22 -12 -8 -4 9 -5 27 -2 40 2 12 2 17 -2 11 -9
-19 -74 -17 -74 2 0 10 10 15 30 15 40 0 130 20 130 29 0 13 -29 46 -30 34 0
-16 -40 22 -40 38 0 5 3 8 8 6 4 -3 8 22 10 54 2 43 -3 72 -19 110 -16 36 -19
53 -11 58 8 5 6 19 -8 47 -29 58 -55 82 -96 90 -19 3 -37 13 -40 20 -13 42
-16 49 -21 36 -4 -10 -8 -10 -19 -1 -12 9 -14 5 -14 -25 0 -22 -4 -35 -10 -31
-5 3 -16 3 -22 -2 -7 -4 -17 -8 -23 -8 -5 0 -9 -12 -7 -27 3 -28 -60 -108 -85
-108 -7 0 -57 -42 -110 -94 -91 -89 -98 -93 -122 -83 -14 6 -29 16 -32 20 -10
14 -44 3 -44 -13 0 -9 10 -15 23 -16 25 -1 57 -24 34 -24 -7 0 -12 -4 -12 -8
0 -13 63 -32 87 -26 27 7 73 -20 49 -29 -9 -4 -18 -2 -21 3 -4 7 -13 6 -26 0
-11 -6 -40 -8 -70 -4 -54 7 -115 -7 -159 -37 -18 -12 -32 -14 -48 -8 -25 10
-62 -7 -62 -28 0 -9 -15 -13 -45 -13 -28 0 -45 -4 -45 -12 0 -9 -3 -9 -11 -1
-11 11 -49 6 -49 -7 0 -4 -9 -10 -21 -13 -12 -3 -19 -9 -16 -14 3 -4 -2 -17
-10 -28 -14 -19 -15 -17 -9 22 3 23 9 48 12 57 5 12 2 15 -11 10 -9 -4 -21
-17 -26 -30 -10 -27 -29 -32 -29 -9 0 8 -5 15 -11 15 -5 0 -7 -6 -3 -12 6 -10
4 -10 -7 -2 -21 17 -107 25 -113 11 -3 -9 -7 -8 -14 2 -7 10 -14 11 -31 2 -16
-9 -21 -9 -21 0 0 6 -7 9 -15 5 -8 -3 -15 0 -15 7 0 7 -8 3 -16 -8 -11 -14
-18 -16 -21 -8 -3 8 -14 11 -30 7 -16 -4 -28 -2 -34 7 -7 12 -9 11 -9 -1 0
-13 -2 -13 -9 -1 -7 11 -12 7 -25 -15 -14 -27 -15 -27 -16 -6 0 24 -18 30 -26
8 -5 -12 -10 -12 -39 0 -32 13 -34 13 -41 -8 l-7 -23 -9 25 c-8 23 -10 23 -19
8 -6 -10 -17 -18 -24 -18 -8 0 -15 8 -15 18 0 14 -2 15 -10 2 -6 -10 -10 -11
-10 -2 0 20 -20 14 -29 -10 -8 -21 -8 -21 -14 3 -6 19 -9 21 -16 10 -13 -21
-41 -22 -41 -3 0 14 -2 14 -9 3 -7 -11 -9 -11 -14 0 -4 11 -8 10 -19 -5 -15
-18 -15 -18 -22 0 -6 17 -9 17 -19 4 -17 -21 -37 -23 -37 -4 0 8 -5 12 -10 9
-6 -3 -10 -1 -10 4 0 21 -19 10 -28 -16 -9 -23 -11 -24 -11 -7 -1 32 -14 37
-28 12 -7 -13 -12 -17 -13 -10 0 7 -5 10 -10 7 -6 -3 -10 0 -10 8 0 12 -20 27
-36 27 -2 0 -8 -15 -13 -32 -8 -30 -9 -31 -10 -7 -1 36 -13 43 -28 17 -7 -13
-12 -17 -13 -10 0 7 -4 10 -10 7 -5 -3 -10 2 -10 12 0 15 -2 16 -10 3 -8 -13
-10 -12 -10 3 0 24 -16 21 -25 -6 l-7 -22 -7 25 -7 25 -14 -22 c-16 -25 -40
-19 -41 11 0 20 -1 20 -9 1 -8 -18 -9 -17 -9 8 -1 36 -16 27 -26 -15 l-8 -33
-6 45 -6 45 -16 -29 -17 -30 -6 30 c-3 16 -5 36 -3 44 1 8 -2 16 -8 17 -8 2
-22 47 -27 90 -1 7 -5 10 -10 7 -5 -3 -6 -9 -4 -13 3 -4 1 -13 -3 -20 -5 -8
-13 11 -20 49 -9 46 -16 60 -27 56 -9 -3 -14 1 -14 14 0 11 -4 20 -10 20 -5 0
-10 9 -10 19 0 11 -7 26 -15 35 -8 8 -15 20 -15 27 0 8 -4 8 -16 -1 -13 -11
-16 -10 -21 8 -6 24 -19 29 -25 11 -3 -8 -8 -7 -18 3 -28 27 -50 29 -60 5 l-9
-22 0 23 c-1 26 -16 29 -29 6 -8 -14 -11 -14 -23 -2 -15 15 -39 12 -51 -6 -5
-7 -8 -4 -8 7 0 29 72 53 230 76 80 12 150 27 156 34 6 7 30 57 54 112 53 123
128 271 146 286 12 10 271 0 421 -16 l41 -4 6 72 c3 40 8 156 11 260 l5 187
-42 0 c-32 0 -39 3 -28 10 8 5 27 10 41 10 l26 0 7 128 c3 70 9 242 12 382 l7
255 -64 55 c-78 67 -270 244 -438 403 l-125 117 -253 0 -253 0 0 -1400z m2650
-954 c0 -6 -5 -18 -10 -26 -8 -12 -10 -12 -10 5 0 11 -3 31 -6 45 -5 24 -5 24
10 6 9 -11 16 -25 16 -30z m-35 -55 c-3 -11 -1 -22 5 -26 5 -3 10 -12 10 -18
0 -7 -9 -1 -19 12 -14 19 -16 28 -7 37 15 18 18 17 11 -5z m2452 -93 c-3 -7
-5 -2 -5 12 0 14 2 19 5 13 2 -7 2 -19 0 -25z m-2515 -75 c22 6 28 2 38 -22 6
-16 11 -44 10 -63 -3 -48 -1 -55 10 -38 7 11 10 6 10 -20 -1 -29 -2 -32 -11
-17 -15 26 -43 22 -34 -5 3 -13 8 -38 10 -56 3 -32 2 -33 -14 -18 -10 9 -20
16 -24 16 -9 0 19 -77 42 -114 10 -17 23 -65 29 -106 6 -41 14 -90 18 -109 7
-32 6 -33 -17 -26 -21 7 -22 6 -11 -8 8 -9 20 -13 28 -10 15 6 19 -30 15 -143
-2 -43 2 -69 13 -86 21 -32 35 -159 15 -140 -27 25 -29 11 -4 -31 33 -58 32
-69 -4 -29 -26 28 -36 32 -81 32 -31 0 -66 -8 -90 -20 -21 -11 -41 -16 -44
-12 -9 15 77 72 116 78 21 4 35 10 32 15 -9 15 -42 10 -84 -11 -49 -25 -52
-19 -5 10 19 12 33 26 29 31 -3 5 -31 10 -62 10 -31 1 -43 4 -27 6 17 2 48 8
70 13 22 5 61 12 88 15 26 3 47 10 47 15 0 14 -58 39 -80 33 -14 -4 -20 0 -20
11 0 9 -7 16 -15 16 -9 0 -30 22 -47 49 -21 36 -39 52 -59 56 -34 8 -39 25 -6
25 38 0 67 12 67 26 0 8 -7 14 -15 14 -23 0 -41 46 -26 64 7 8 8 17 3 20 -13
8 -21 56 -9 56 5 0 2 11 -7 25 -9 14 -12 25 -6 25 5 0 10 7 10 15 0 8 -4 15
-9 15 -5 0 -11 17 -14 38 -3 26 0 41 12 50 14 11 13 13 -7 19 -15 4 -21 11
-18 20 4 8 9 26 12 39 3 13 11 24 16 24 6 0 5 6 -2 15 -9 11 -8 22 8 52 39 78
47 130 12 88 -16 -20 -30 -19 -30 2 0 9 3 13 7 10 9 -9 34 13 27 24 -3 5 1 9
9 9 8 0 18 7 21 17 6 15 8 14 20 -2 9 -13 20 -16 38 -12z m-2135 -78 c0 -8 -4
-15 -9 -15 -4 0 -8 7 -8 15 0 8 4 15 8 15 5 0 9 -7 9 -15z m4610 -67 c-2 -18
-4 -6 -4 27 0 33 2 48 4 33 2 -15 2 -42 0 -60z m-2402 52 c3 -5 1 -10 -4 -10
-6 0 -11 5 -11 10 0 6 2 10 4 10 3 0 8 -4 11 -10z m-435 -96 c0 -13 -5 -26
-12 -30 -7 -5 -9 0 -6 14 3 12 3 21 -1 20 -15 -1 -22 3 -17 10 11 18 36 8 36
-14z m572 -16 c-7 -7 -12 -21 -12 -32 0 -17 -2 -18 -10 -6 -5 9 -5 19 0 26 6
6 7 14 4 17 -3 3 -3 11 1 17 5 9 10 9 18 1 8 -8 8 -14 -1 -23z m2025 10 c-3
-8 -6 -5 -6 6 -1 11 2 17 5 13 3 -3 4 -12 1 -19z m-2628 -28 c12 -17 28 -30
35 -30 8 0 17 -7 20 -16 5 -12 0 -11 -22 4 -37 28 -91 85 -71 77 9 -3 26 -19
38 -35z m-88 -6 c12 -33 7 -39 -22 -24 -12 7 -39 10 -60 7 -31 -4 -36 -2 -32
10 4 11 15 14 40 10 29 -5 33 -4 23 8 -10 13 -8 15 14 15 19 0 29 -7 37 -26z
m732 1 c1 -5 -6 -11 -15 -13 -11 -2 -18 3 -18 13 0 17 30 18 33 0z m-180 -15
c-3 -12 -8 -19 -11 -16 -5 6 5 36 12 36 2 0 2 -9 -1 -20z m2294 -32 c-3 -8 -6
-5 -6 6 -1 11 2 17 5 13 3 -3 4 -12 1 -19z m-3006 -95 c19 -21 69 -109 69
-123 0 -15 -26 -12 -40 5 -7 9 -19 14 -27 11 -7 -3 -13 -1 -13 4 0 6 -5 10
-11 10 -6 0 -25 11 -42 24 -37 28 -54 32 -80 21 -23 -10 -30 -2 -22 24 3 12
14 21 24 21 9 0 26 7 37 15 24 19 81 13 105 -12z m109 -129 c0 -16 -16 -19
-25 -4 -8 13 4 32 16 25 5 -4 9 -13 9 -21z m2897 -126 c-3 -8 -6 -5 -6 6 -1
11 2 17 5 13 3 -3 4 -12 1 -19z m40 -55 c-2 -16 -4 -5 -4 22 0 28 2 40 4 28 2
-13 2 -35 0 -50z m-40 -65 c-2 -18 -4 -4 -4 32 0 36 2 50 4 33 2 -18 2 -48 0
-65z m0 -60 c-3 -8 -6 -5 -6 6 -1 11 2 17 5 13 3 -3 4 -12 1 -19z m-2274 -223
c-3 -9 -8 -14 -10 -11 -3 3 -2 9 2 15 9 16 15 13 8 -4z m1654 -101 c-3 -3 -12
-4 -19 -1 -8 3 -5 6 6 6 11 1 17 -2 13 -5z m-4222 -24 c-27 -12 -43 -12 -25 0
8 5 22 9 30 9 10 0 8 -3 -5 -9z m4692 4 c-3 -3 -12 -4 -19 -1 -8 3 -5 6 6 6
11 1 17 -2 13 -5z m-432 -14 c3 -5 2 -10 -4 -10 -5 0 -13 5 -16 10 -3 6 -2 10
4 10 5 0 13 -4 16 -10z m95 0 c0 -5 -7 -10 -15 -10 -8 0 -15 5 -15 10 0 6 7
10 15 10 8 0 15 -4 15 -10z m425 1 c3 -6 -3 -9 -14 -8 -11 0 -17 5 -15 9 7 11
22 10 29 -1z m160 -1 c-12 -5 -14 -9 -6 -9 8 -1 12 -4 8 -7 -3 -3 -16 1 -29
10 -22 16 -22 16 12 15 29 0 31 -2 15 -9z m52 4 c-3 -3 -12 -4 -19 -1 -8 3 -5
6 6 6 11 1 17 -2 13 -5z m-267 -14 c0 -5 -4 -10 -9 -10 -6 0 -13 5 -16 10 -3
6 1 10 9 10 9 0 16 -4 16 -10z m-920 -15 c0 -8 -4 -15 -10 -15 -5 0 -7 7 -4
15 4 8 8 15 10 15 2 0 4 -7 4 -15z m1210 11 c0 -2 -7 -7 -16 -10 -8 -3 -12 -2
-9 4 6 10 25 14 25 6z m-340 -17 c0 -5 4 -8 9 -5 12 7 24 -25 14 -35 -4 -4
-18 3 -29 16 -20 23 -21 35 -2 35 4 0 8 -5 8 -11z m166 2 c-4 -5 0 -12 6 -14
7 -3 3 -6 -8 -6 -12 -1 -37 6 -55 14 l-34 14 48 1 c27 0 46 -4 43 -9z m-2476
-9 c0 -4 -5 -13 -12 -20 -22 -22 0 -23 41 -3 46 24 85 26 121 7 21 -12 26 -12
37 3 11 14 12 14 14 -4 2 -33 -2 -59 -12 -69 -13 -14 -11 -29 2 -20 8 4 8 0 0
-15 -6 -11 -23 -24 -37 -27 -38 -10 -200 18 -196 34 1 6 -2 12 -8 12 -19 0
-10 57 13 83 22 26 37 34 37 19z m1748 -15 c3 -13 -4 -17 -27 -17 -17 0 -31 5
-31 10 0 6 7 10 15 10 8 0 15 5 15 11 0 17 25 4 28 -14z m52 2 c0 -5 -4 -9 -8
-9 -5 0 -9 7 -9 15 0 8 4 12 9 9 4 -3 8 -9 8 -15z m177 8 c6 -4 13 -1 16 5 3
10 7 10 20 0 9 -8 22 -10 29 -6 26 16 80 3 110 -26 34 -34 38 -36 38 -15 0 8
-6 15 -14 15 -16 0 -41 28 -33 36 3 4 14 3 24 -2 10 -4 38 -6 63 -5 34 1 41
-1 30 -8 -12 -9 -9 -11 15 -12 17 0 24 -3 17 -6 -6 -2 -10 -9 -6 -14 8 -14 -4
-11 -31 7 -15 10 -25 12 -25 5 0 -6 -8 -11 -17 -11 -14 -1 -12 -4 7 -14 24
-14 24 -14 -15 -14 -21 0 -45 6 -52 14 -8 8 -22 14 -30 14 -14 0 -14 -3 2 -20
32 -35 10 -31 -29 5 -21 19 -40 35 -41 35 -2 0 -1 -10 2 -22 l5 -23 -21 24
c-21 23 -21 23 -21 2 0 -12 5 -21 10 -21 6 0 10 -10 10 -22 0 -19 -2 -20 -10
-8 -5 8 -15 15 -22 16 -7 0 -21 4 -30 8 -13 6 -15 11 -5 21 6 7 18 10 24 8 7
-3 13 0 13 6 0 14 -33 14 -47 0 -14 -14 -33 -3 -33 20 0 18 24 22 47 8z m693
-21 c0 -6 -19 -11 -48 -12 -26 -1 -37 1 -24 3 13 3 19 9 16 15 -5 7 -1 9 9 5
10 -3 17 -2 17 3 0 5 7 7 15 4 8 -4 15 -11 15 -18z m-1580 4 c0 -5 -5 -10 -11
-10 -5 0 -7 5 -4 10 3 6 8 10 11 10 2 0 4 -4 4 -10z m155 0 c3 -5 2 -10 -4
-10 -5 0 -13 5 -16 10 -3 6 -2 10 4 10 5 0 13 -4 16 -10z m133 -5 c1 -1 -6 -5
-17 -8 -11 -3 -28 1 -38 9 -16 12 -14 13 17 7 19 -3 36 -7 38 -8z m1182 -4 c0
-4 -22 -6 -49 -3 -30 2 -51 0 -55 -7 -4 -6 -14 -11 -22 -11 -8 0 -13 4 -9 9 3
5 -5 11 -17 13 -13 3 16 5 65 6 48 1 87 -2 87 -7z m-1920 -25 c0 -3 -4 -8 -10
-11 -5 -3 -10 -1 -10 4 0 6 5 11 10 11 6 0 10 -2 10 -4z m1126 -9 c17 6 17 5
5 -10 -12 -15 -10 -17 22 -17 45 0 69 9 60 23 -3 6 -1 7 6 3 6 -4 9 -11 7 -15
-3 -4 4 -18 15 -29 22 -25 9 -31 -15 -7 -17 17 -36 20 -36 5 0 -5 -7 -10 -15
-10 -8 0 -15 5 -15 10 0 6 -5 10 -11 10 -5 0 -7 -4 -4 -10 3 -5 1 -10 -5 -10
-7 0 -10 -7 -6 -15 3 -9 -3 -19 -15 -25 -19 -11 -19 -10 -5 24 11 27 12 36 3
36 -15 0 -38 35 -30 44 4 3 10 2 13 -4 4 -6 15 -7 26 -3z m857 6 c-7 -2 -19
-2 -25 0 -7 3 -2 5 12 5 14 0 19 -2 13 -5z m-1656 -17 c3 -3 -6 -6 -20 -6 -15
0 -27 -5 -27 -11 0 -7 10 -9 25 -7 13 3 22 1 19 -3 -3 -5 -12 -9 -20 -9 -8 0
-14 -5 -14 -11 0 -8 12 -10 34 -6 31 5 34 3 39 -21 3 -15 0 -33 -5 -40 -8 -10
-6 -11 8 -5 16 6 17 5 6 -9 -11 -14 -10 -18 5 -27 16 -9 14 -10 -10 -11 -18 0
-26 -4 -21 -11 3 -6 -5 -3 -19 6 -15 9 -32 13 -38 9 -8 -5 -9 -3 -4 5 4 7 18
11 31 8 19 -3 24 0 24 15 0 11 -5 16 -10 13 -12 -7 -42 20 -33 29 4 3 1 6 -6
6 -7 0 -9 5 -6 10 4 6 -2 26 -13 44 -11 19 -18 36 -16 39 7 6 63 1 71 -7z
m203 2 c0 -5 -4 -8 -10 -8 -5 0 -10 -5 -10 -11 0 -6 7 -8 16 -5 12 5 15 2 10
-10 -8 -21 9 -51 35 -59 17 -6 19 -9 8 -16 -8 -5 -9 -9 -3 -9 22 0 23 -40 2
-60 -11 -10 -17 -24 -13 -32 3 -7 -1 -4 -9 6 -12 15 -13 22 -4 27 7 4 -5 10
-28 15 -32 6 -35 8 -19 15 11 4 14 8 8 8 -7 1 -12 7 -10 14 1 7 -10 12 -32 13
-19 0 -36 5 -39 12 -2 7 2 12 8 12 7 0 9 7 6 15 -3 8 -9 22 -12 30 -3 8 -1 15
5 15 6 0 11 -9 11 -20 0 -28 17 -25 22 5 7 32 2 35 -44 35 -24 0 -38 -5 -38
-12 0 -9 -4 -8 -10 2 -7 11 -4 16 13 21 32 8 137 6 137 -3z m85 2 c4 -6 -6
-10 -22 -10 -22 0 -25 2 -13 10 19 12 27 12 35 0z m290 0 c3 -5 -1 -10 -9 -10
-9 0 -16 5 -16 10 0 6 4 10 9 10 6 0 13 -4 16 -10z m183 -24 c22 -38 21 -46
-9 -39 -21 6 -26 29 -6 36 6 3 2 6 -10 6 -16 1 -21 6 -17 16 9 23 20 18 42
-19z m-1188 14 c0 -5 -4 -10 -9 -10 -6 0 -13 5 -16 10 -3 6 1 10 9 10 9 0 16
-4 16 -10z m295 -1 c11 -17 -1 -21 -15 -4 -8 9 -8 15 -2 15 6 0 14 -5 17 -11z
m792 5 c-3 -3 -12 -4 -19 -1 -8 3 -5 6 6 6 11 1 17 -2 13 -5z m557 -19 c-4 -8
-14 -15 -24 -15 -10 0 -27 -3 -37 -6 -16 -5 -16 -4 2 10 11 9 25 14 32 12 7
-3 13 -1 13 4 0 6 4 10 10 10 5 0 7 -7 4 -15z m-921 -11 c-3 -9 2 -14 16 -14
19 0 31 -19 14 -21 -5 0 -20 -3 -35 -5 -28 -5 -39 9 -15 20 10 5 10 7 0 12
-19 9 -16 20 6 21 14 1 18 -3 14 -13z m-599 -17 c-1 -8 4 -13 11 -11 7 3 15
-4 17 -14 6 -20 -6 -23 -29 -9 -8 5 -13 3 -13 -3 0 -7 -7 -10 -15 -6 -8 3 -15
0 -15 -6 0 -6 -3 -8 -7 -5 -3 4 4 18 17 32 13 14 18 25 11 25 -7 0 -9 5 -6 11
10 15 30 5 29 -14z m76 13 c0 -5 -5 -10 -11 -10 -5 0 -7 5 -4 10 3 6 8 10 11
10 2 0 4 -4 4 -10z m583 -10 c-3 -12 -8 -19 -11 -16 -5 6 5 36 12 36 2 0 2 -9
-1 -20z m60 13 c-7 -2 -21 -2 -30 0 -10 3 -4 5 12 5 17 0 24 -2 18 -5z m38 0
c-10 -4 -8 -9 9 -18 21 -11 20 -12 -19 -9 -45 3 -70 14 -33 14 12 0 22 5 22
10 0 6 8 10 18 9 12 0 13 -2 3 -6z m252 -7 c10 -8 14 -17 8 -20 -8 -5 -41 18
-41 30 0 8 15 3 33 -10z m560 7 c-7 -2 -19 -2 -25 0 -7 3 -2 5 12 5 14 0 19
-2 13 -5z m77 -3 c0 -5 -2 -10 -4 -10 -3 0 -8 5 -11 10 -3 6 -1 10 4 10 6 0
11 -4 11 -10z m-1706 -15 c-13 -10 -14 -14 -5 -15 10 0 11 -3 2 -13 -6 -8 -8
-17 -4 -20 3 -4 -3 -7 -15 -7 -12 0 -21 3 -21 8 4 21 -3 24 -16 6 -8 -10 -15
-14 -15 -8 0 6 7 17 15 24 8 7 15 9 15 4 0 -4 9 2 20 14 12 12 26 22 32 22 7
0 3 -7 -8 -15z m998 -7 c-8 -8 -3 -20 15 -43 22 -27 32 -32 57 -29 26 3 28 1
13 -7 -17 -10 -17 -13 -3 -34 10 -15 12 -26 6 -30 -6 -3 -10 1 -10 10 0 8 -6
18 -14 21 -8 3 -12 12 -9 20 4 10 0 12 -11 8 -9 -3 -16 -2 -16 3 0 5 -16 8
-35 8 -19 -1 -35 3 -35 8 0 5 11 7 25 5 14 -3 25 -1 25 3 0 5 -6 9 -12 10 -7
1 -28 2 -46 4 -19 1 -38 7 -44 13 -6 6 0 8 19 6 15 -2 21 -1 11 2 -9 3 -19 11
-21 19 -4 10 7 13 45 13 36 1 48 -2 40 -10z m-1181 -28 c16 0 29 -4 29 -10 0
-5 -16 -10 -35 -10 -30 0 -35 3 -34 23 0 12 3 16 6 10 2 -7 18 -13 34 -13z
m1416 -2 c13 -12 23 -27 23 -35 0 -14 -12 -17 -23 -6 -13 12 -55 9 -50 -3 3
-9 -6 -11 -29 -9 -18 2 -25 1 -15 -1 9 -3 17 -10 17 -15 0 -6 5 -7 10 -4 6 3
10 1 10 -5 0 -10 -47 -7 -58 5 -18 17 -8 35 18 35 16 0 32 5 35 10 3 6 15 10
26 10 10 0 19 5 19 10 0 6 -7 10 -15 10 -8 0 -15 5 -15 10 0 17 22 11 47 -12z
m742 5 c18 -19 -26 -17 -45 2 -14 13 -13 15 9 13 13 -1 29 -8 36 -15z m51 0
c0 -14 -2 -15 -9 -4 -7 11 -9 11 -14 0 -4 -10 -6 -9 -6 4 -1 9 6 17 14 17 8 0
15 -8 15 -17z m-2326 -14 c19 3 39 -1 28 -6 -6 -2 -10 -8 -7 -13 3 -4 -2 -10
-10 -13 -9 -4 -12 -1 -8 9 3 7 0 14 -6 14 -6 0 -11 -7 -11 -16 0 -9 -8 -14
-17 -13 -38 3 -44 -1 -38 -22 5 -15 4 -19 -4 -15 -6 4 -11 19 -11 33 0 23 3
25 33 21 25 -4 28 -3 15 5 -15 10 -15 12 0 23 11 8 19 9 23 2 3 -5 9 -9 13 -9z
m1165 7 c15 -10 14 -43 -1 -49 -7 -2 -22 1 -33 6 -19 10 -18 12 10 18 22 5 14
7 -32 8 -45 1 -63 5 -63 14 0 10 15 13 54 11 30 -1 59 -5 65 -8z m246 -6 c-3
-5 -18 -7 -33 -5 -15 2 -34 5 -42 6 -8 1 1 5 20 8 39 8 63 3 55 -9z m415 5
c11 -13 7 -15 -24 -15 -21 0 -35 4 -32 9 4 5 0 12 -6 14 -7 3 1 6 18 6 17 1
37 -6 44 -14z m223 8 c-7 -2 -21 -2 -30 0 -10 3 -4 5 12 5 17 0 24 -2 18 -5z
m50 0 c-7 -2 -19 -2 -25 0 -7 3 -2 5 12 5 14 0 19 -2 13 -5z m-1636 -11 c8 -5
9 -12 2 -22 -8 -13 -10 -13 -19 0 -18 27 -9 39 17 22z m119 -5 c4 -4 -2 -7
-14 -7 -11 0 -24 5 -27 10 -7 11 30 8 41 -3z m439 2 c-7 -11 -62 -12 -69 -1
-2 4 13 9 35 9 23 1 37 -2 34 -8z m885 -11 c0 -6 -7 -7 -16 -4 -9 3 -20 6 -25
6 -5 0 -9 4 -9 9 0 4 11 6 25 3 14 -2 25 -9 25 -14z m-175 2 c-3 -5 -1 -10 6
-10 7 0 10 -3 6 -6 -9 -9 -28 6 -22 17 4 5 8 9 11 9 3 0 2 -4 -1 -10z m220 0
c-3 -5 -10 -10 -16 -10 -5 0 -9 5 -9 10 0 6 7 10 16 10 8 0 12 -4 9 -10z m115
-10 c0 -5 -4 -10 -10 -10 -5 0 -10 5 -10 10 0 6 5 10 10 10 6 0 10 -4 10 -10z
m167 4 c-3 -3 -12 -4 -19 -1 -8 3 -5 6 6 6 11 1 17 -2 13 -5z m101 1 c-8 -8
-77 -9 -85 -2 -3 4 15 7 42 7 27 0 46 -2 43 -5z m-2201 -11 c-3 -3 -12 -4 -19
-1 -8 3 -5 6 6 6 11 1 17 -2 13 -5z m213 -4 c0 -5 -7 -10 -16 -10 -8 0 -12 5
-9 10 3 6 10 10 16 10 5 0 9 -4 9 -10z m44 -11 c-17 -7 -17 -8 -1 -8 33 -2 17
-21 -18 -21 -19 0 -35 5 -35 10 0 6 5 10 11 10 6 0 17 7 26 15 8 8 20 12 26 8
7 -4 4 -9 -9 -14z m413 -4 c23 -24 9 -28 -17 -5 -13 11 -18 20 -11 20 7 0 19
-7 28 -15z m223 -3 c0 -15 -2 -15 -11 -2 -8 11 -9 8 -4 -15 l6 -30 -20 22
c-27 29 -26 38 4 41 18 1 25 -3 25 -16z m905 0 c-3 -3 -11 0 -18 7 -9 10 -8
11 6 5 10 -3 15 -9 12 -12z m63 1 c-10 -2 -26 -2 -35 0 -10 3 -2 5 17 5 19 0
27 -2 18 -5z m107 -3 c7 -12 -2 -12 -30 0 -19 8 -19 9 2 9 12 1 25 -3 28 -9z
m-2120 -10 c3 -5 1 -10 -4 -10 -6 0 -11 5 -11 10 0 6 2 10 4 10 3 0 8 -4 11
-10z m275 0 c0 -5 -12 -10 -26 -10 -14 0 -23 4 -19 10 3 6 15 10 26 10 10 0
19 -4 19 -10z m224 -5 c3 -8 0 -15 -6 -15 -24 0 15 -29 45 -33 32 -4 32 -4 -4
-5 -38 -2 -66 18 -54 39 4 6 1 15 -6 20 -11 7 -11 9 2 9 9 0 19 -7 23 -15z
m636 5 c0 -5 -5 -10 -11 -10 -5 0 -7 5 -4 10 3 6 8 10 11 10 2 0 4 -4 4 -10z
m80 1 c0 -6 -4 -13 -10 -16 -5 -3 -10 1 -10 9 0 9 5 16 10 16 6 0 10 -4 10 -9z
m-1000 -11 c0 -5 -4 -10 -10 -10 -5 0 -10 5 -10 10 0 6 5 10 10 10 6 0 10 -4
10 -10z m-360 -10 c0 -5 -6 -10 -14 -10 -8 0 -18 5 -21 10 -3 6 3 10 14 10 12
0 21 -4 21 -10z m590 0 c0 -5 -5 -10 -11 -10 -5 0 -7 5 -4 10 3 6 8 10 11 10
2 0 4 -4 4 -10z m1180 -1 c0 -5 -19 -10 -42 -10 -28 -1 -34 -3 -18 -6 14 -3
30 -9 37 -14 7 -7 12 -6 15 2 2 7 11 10 21 6 31 -12 17 -27 -25 -27 -44 0 -80
23 -72 45 6 15 84 19 84 4z m55 1 c3 -5 1 -10 -4 -10 -6 0 -11 5 -11 10 0 6 2
10 4 10 3 0 8 -4 11 -10z m90 1 c-3 -5 -1 -12 5 -16 5 -3 10 -11 10 -17 0 -7
-9 -2 -20 10 -24 26 -25 32 -4 32 8 0 13 -4 9 -9z m52 -10 c15 -23 53 -35 53
-15 0 8 -10 14 -22 14 -16 0 -19 3 -11 11 14 14 53 2 53 -17 0 -8 7 -14 15
-14 15 0 22 -19 8 -21 -13 -1 -97 -1 -109 0 -11 1 -16 61 -5 61 4 0 11 -8 18
-19z m118 9 c-3 -5 -11 -10 -16 -10 -6 0 -7 5 -4 10 3 6 11 10 16 10 6 0 7 -4
4 -10z m-1390 -10 c3 -5 2 -10 -4 -10 -5 0 -13 5 -16 10 -3 6 -2 10 4 10 5 0
13 -4 16 -10z m215 -18 c0 -4 -11 -8 -26 -8 -23 -2 -24 -1 -7 11 17 13 33 11
33 -3z m490 8 c0 -5 -7 -7 -15 -4 -8 4 -15 8 -15 10 0 2 7 4 15 4 8 0 15 -4
15 -10z m270 -5 c0 -8 -4 -15 -9 -15 -5 0 -11 7 -15 15 -3 9 0 15 9 15 8 0 15
-7 15 -15z m488 -5 c26 0 -1 -21 -35 -26 -22 -4 -30 -1 -30 11 0 12 7 15 23
11 16 -4 22 -2 20 6 -1 7 -1 10 1 6 3 -5 12 -8 21 -8z m-2008 -10 c0 -17 -2
-19 -14 -8 -10 9 -11 15 -2 20 16 11 16 10 16 -12z m370 16 c0 -2 -7 -7 -16
-10 -8 -3 -12 -2 -9 4 6 10 25 14 25 6z m496 -24 c-18 -16 -18 -16 -6 6 6 13
14 21 18 18 3 -4 -2 -14 -12 -24z m89 8 c-3 -5 1 -15 10 -23 13 -13 13 -16 -1
-21 -9 -3 -17 -6 -18 -6 -1 0 -2 16 -3 35 -1 19 3 32 8 29 5 -3 7 -9 4 -14z
m405 10 c0 -5 -2 -10 -4 -10 -3 0 -8 5 -11 10 -3 6 -1 10 4 10 6 0 11 -4 11
-10z m-3693 -6 c-3 -3 -12 -4 -19 -1 -8 3 -5 6 6 6 11 1 17 -2 13 -5z m103
-10 c0 -2 -9 -4 -21 -4 -11 0 -18 4 -14 10 5 8 35 3 35 -6z m185 6 c3 -6 -1
-7 -9 -4 -18 7 -21 14 -7 14 6 0 13 -4 16 -10z m2476 -13 c-10 -9 -11 -8 -5 6
3 10 9 15 12 12 3 -3 0 -11 -7 -18z m624 13 c3 -5 1 -10 -4 -10 -6 0 -11 5
-11 10 0 6 2 10 4 10 3 0 8 -4 11 -10z m1000 0 c-3 -5 -11 -10 -16 -10 -6 0
-7 5 -4 10 3 6 11 10 16 10 6 0 7 -4 4 -10z m154 7 c-2 -1 -12 -9 -21 -16 -15
-12 -18 -11 -18 3 0 10 8 16 22 16 12 0 19 -1 17 -3z m-4402 -13 c-3 -3 -12
-4 -19 -1 -8 3 -5 6 6 6 11 1 17 -2 13 -5z m101 -1 c-10 -2 -28 -2 -40 0 -13
2 -5 4 17 4 22 1 32 -1 23 -4z m3559 1 c-3 -3 -12 -4 -19 -1 -8 3 -5 6 6 6 11
1 17 -2 13 -5z m778 -4 c3 -5 -1 -10 -10 -10 -9 0 -13 5 -10 10 3 6 8 10 10
10 2 0 7 -4 10 -10z m-3550 -10 c3 -5 -3 -10 -15 -10 -12 0 -18 5 -15 10 3 6
10 10 15 10 5 0 12 -4 15 -10z m772 4 c-3 -3 -12 -4 -19 -1 -8 3 -5 6 6 6 11
1 17 -2 13 -5z m1592 -12 c18 3 34 1 37 -4 3 -4 -1 -8 -8 -8 -9 0 -9 -3 2 -10
8 -5 10 -10 5 -10 -6 0 -16 5 -23 12 -6 6 -15 9 -19 5 -3 -4 1 -13 11 -20 16
-11 15 -13 -8 -15 -19 -1 -26 5 -35 30 -13 37 -14 48 -2 29 6 -9 20 -12 40 -9z
m1238 12 c-3 -3 -12 -4 -19 -1 -8 3 -5 6 6 6 11 1 17 -2 13 -5z m46 -1 c-7 -2
-19 -2 -25 0 -7 3 -2 5 12 5 14 0 19 -2 13 -5z m-4383 -13 c13 -8 13 -10 -2
-10 -9 0 -20 5 -23 10 -8 13 5 13 25 0z m2890 -41 c0 -5 -4 -9 -10 -9 -10 0
-14 15 -11 34 1 5 -7 6 -19 3 -22 -6 -28 8 -7 16 12 5 47 -28 47 -44z m385 41
c3 -5 1 -10 -4 -10 -6 0 -11 5 -11 10 0 6 2 10 4 10 3 0 8 -4 11 -10z m-3708
-6 c-3 -3 -12 -4 -19 -1 -8 3 -5 6 6 6 11 1 17 -2 13 -5z m390 0 c-3 -3 -12
-4 -19 -1 -8 3 -5 6 6 6 11 1 17 -2 13 -5z m2366 -8 c4 -10 1 -13 -8 -9 -8 3
-12 9 -9 14 7 12 11 11 17 -5z m614 8 c-3 -3 -12 -4 -19 -1 -8 3 -5 6 6 6 11
1 17 -2 13 -5z m-2659 -24 c-7 -10 -14 -17 -17 -15 -4 4 18 35 25 35 2 0 -1
-9 -8 -20z m442 0 c-14 -3 -38 -4 -55 -1 -29 5 -29 6 10 11 48 7 83 -1 45 -10z
m1438 -1 c29 0 50 -4 47 -9 -7 -11 -175 -9 -175 2 0 5 7 8 16 8 8 0 12 4 9 10
-4 6 4 6 22 -1 15 -6 52 -10 81 -10z m129 -1 c-3 -8 -6 -5 -6 6 -1 11 2 17 5
13 3 -3 4 -12 1 -19z m1416 15 c-7 -2 -19 -2 -25 0 -7 3 -2 5 12 5 14 0 19 -2
13 -5z m354 1 c-3 -3 -12 -4 -19 -1 -8 3 -5 6 6 6 11 1 17 -2 13 -5z m-3440
-10 c-3 -3 -12 -4 -19 -1 -8 3 -5 6 6 6 11 1 17 -2 13 -5z m993 -4 c0 -5 -5
-10 -11 -10 -5 0 -7 5 -4 10 3 6 8 10 11 10 2 0 4 -4 4 -10z m175 0 c-3 -5
-13 -10 -21 -10 -8 0 -12 5 -9 10 3 6 13 10 21 10 8 0 12 -4 9 -10z m1250 -11
c-8 -12 -35 -11 -35 2 0 5 5 7 10 4 6 -3 10 -1 10 5 0 6 5 8 10 5 6 -4 8 -11
5 -16z m-1098 5 c-3 -3 -12 -4 -19 -1 -8 3 -5 6 6 6 11 1 17 -2 13 -5z m53 -4
c0 -5 -2 -10 -4 -10 -3 0 -8 5 -11 10 -3 6 -1 10 4 10 6 0 11 -4 11 -10z
m1480 0 c12 -8 11 -10 -7 -10 -13 0 -23 5 -23 10 0 13 11 13 30 0z m-3920 -10
c0 -5 -2 -10 -4 -10 -3 0 -8 5 -11 10 -3 6 -1 10 4 10 6 0 11 -4 11 -10z m357
4 c-3 -3 -12 -4 -19 -1 -8 3 -5 6 6 6 11 1 17 -2 13 -5z m133 2 c0 -2 -7 -6
-15 -10 -8 -3 -15 -1 -15 4 0 6 7 10 15 10 8 0 15 -2 15 -4z m43 -3 c-7 -2
-19 -2 -25 0 -7 3 -2 5 12 5 14 0 19 -2 13 -5z m82 -2 c9 -16 -9 -20 -23 -5
-10 12 -10 14 2 14 8 0 17 -4 21 -9z m3611 -12 c3 -5 -16 -8 -43 -8 -26 1 -38
4 -25 6 12 2 20 8 17 12 -2 5 7 6 20 3 14 -2 28 -8 31 -13z m194 1 c24 -2 24
-3 -5 -10 -24 -6 -26 -8 -7 -9 24 -1 27 -8 13 -30 -13 -21 -54 -4 -48 20 4 17
-1 19 -39 19 -24 0 -44 4 -44 8 0 8 65 9 130 2z m55 0 c3 -5 2 -10 -4 -10 -5
0 -13 5 -16 10 -3 6 -2 10 4 10 5 0 13 -4 16 -10z m85 6 c0 -2 -9 -6 -20 -9
-11 -3 -20 -1 -20 4 0 5 9 9 20 9 11 0 20 -2 20 -4z m176 -8 c4 -5 -11 -8 -34
-8 -23 0 -42 3 -42 8 0 9 66 9 76 0z m-3661 -8 c3 -5 1 -10 -4 -10 -6 0 -11 5
-11 10 0 6 2 10 4 10 3 0 8 -4 11 -10z m2505 -12 c0 -13 -32 -6 -37 9 -3 7 3
9 16 6 12 -3 21 -10 21 -15z m-3380 8 c0 -2 -7 -6 -15 -10 -8 -3 -15 -1 -15 4
0 6 7 10 15 10 8 0 15 -2 15 -4z m1680 -12 c0 -2 -7 -4 -15 -4 -8 0 -15 4 -15
10 0 5 7 7 15 4 8 -4 15 -8 15 -10z m814 -11 c8 -16 15 -22 16 -15 0 6 7 12
16 12 14 0 14 -2 0 -15 -17 -17 -46 -20 -46 -5 0 6 -17 10 -37 11 l-38 1 33 9
c17 5 32 14 32 19 0 17 9 11 24 -17z m66 23 c0 -11 -19 -15 -25 -6 -3 5 1 10
9 10 9 0 16 -2 16 -4z m46 -11 c-3 -8 -2 -15 3 -15 4 0 8 -7 8 -15 0 -9 -9
-15 -22 -15 -13 0 -28 7 -35 15 -10 13 -9 15 9 15 12 0 21 6 21 15 0 8 5 15
11 15 6 0 9 -7 5 -15z m54 6 c0 -5 -9 -7 -20 -4 -11 3 -20 7 -20 9 0 2 9 4 20
4 11 0 20 -4 20 -9z m60 -1 c0 -5 -4 -10 -10 -10 -5 0 -10 5 -10 10 0 6 5 10
10 10 6 0 10 -4 10 -10z m40 0 c0 -5 -7 -10 -16 -10 -8 0 -12 5 -9 10 3 6 10
10 16 10 5 0 9 -4 9 -10z m65 0 c3 -5 1 -10 -4 -10 -6 0 -11 5 -11 10 0 6 2
10 4 10 3 0 8 -4 11 -10z m485 0 c18 -12 2 -12 -25 0 -13 6 -15 9 -5 9 8 0 22
-4 30 -9z m-1467 -7 c-7 -2 -21 -2 -30 0 -10 3 -4 5 12 5 17 0 24 -2 18 -5z
m551 -15 c-4 -6 0 -14 7 -19 10 -6 3 -9 -21 -8 -25 0 -30 2 -17 8 10 4 18 10
18 14 -3 22 0 28 9 22 6 -4 7 -11 4 -17z m1183 16 c-3 -3 -12 -4 -19 -1 -8 3
-5 6 6 6 11 1 17 -2 13 -5z m134 -16 c25 -28 24 -29 -8 -25 -28 4 -45 26 -21
28 7 0 4 4 -7 9 -19 8 -19 9 -1 9 10 1 27 -9 37 -21z m42 11 c-8 -8 -16 -8
-30 0 -16 9 -14 10 12 11 21 0 26 -3 18 -11z m116 -11 c5 -13 7 -25 6 -28 -3
-4 -54 -4 -117 0 -5 0 -8 5 -8 11 0 7 10 9 28 5 23 -5 24 -5 8 5 -24 15 -4 29
42 29 25 0 35 -5 41 -22z m132 11 c-16 -6 -28 -6 -35 1 -7 7 1 10 25 9 32 0
33 -1 10 -10z m396 5 c-3 -3 -12 -4 -19 -1 -8 3 -5 6 6 6 11 1 17 -2 13 -5z
m130 0 c-3 -3 -12 -4 -19 -1 -8 3 -5 6 6 6 11 1 17 -2 13 -5z m78 -12 c-3 -3
-11 0 -18 7 -9 10 -8 11 6 5 10 -3 15 -9 12 -12z m-4125 -8 c0 -8 -5 -12 -10
-9 -6 4 -8 11 -5 16 9 14 15 11 15 -7z m120 0 c0 -2 -11 -4 -25 -4 -14 0 -25
4 -25 9 0 4 11 6 25 3 14 -2 25 -6 25 -8z m1655 6 c-3 -5 -2 -10 4 -10 5 0 11
5 13 12 3 9 6 9 12 0 12 -20 -21 -25 -46 -8 l-22 16 22 0 c13 0 20 -4 17 -10z
m-2565 -9 c0 -6 -4 -13 -10 -16 -5 -3 -10 -2 -10 4 0 6 -7 8 -15 5 -8 -4 -15
-1 -15 5 0 6 11 11 25 11 14 0 25 -4 25 -9z m140 5 c0 -3 -4 -8 -10 -11 -5 -3
-10 -1 -10 4 0 6 5 11 10 11 6 0 10 -2 10 -4z m824 -3 c-5 -5 -12 -12 -15 -16
-3 -5 -9 -2 -12 7 -5 12 0 16 15 16 12 0 17 -3 12 -7z m2006 -8 c0 -8 -8 -15
-17 -14 -13 0 -14 2 -4 6 11 5 11 7 0 14 -11 7 -10 9 4 9 9 0 17 -7 17 -15z
m17 -7 c-3 -8 -6 -5 -6 6 -1 11 2 17 5 13 3 -3 4 -12 1 -19z m53 6 c0 -9 -5
-14 -12 -12 -18 6 -21 28 -4 28 9 0 16 -7 16 -16z m35 7 c-3 -5 3 -12 12 -14
14 -4 13 -5 -4 -6 -14 -1 -23 5 -23 14 0 8 5 15 11 15 5 0 8 -4 4 -9z m448 -5
c6 -14 -27 -26 -51 -18 -18 6 -15 20 6 25 31 8 40 7 45 -7z m126 -13 c2 -2 -3
-3 -11 -3 -9 0 -19 7 -22 16 -6 15 -4 15 11 3 10 -7 20 -15 22 -16z m51 12 c0
-8 -6 -15 -14 -15 -8 0 -16 7 -20 15 -4 10 1 15 14 15 11 0 20 -7 20 -15z m54
8 c-5 -5 -12 -12 -16 -18 -4 -6 -8 -2 -8 8 0 9 7 17 17 17 9 0 12 -3 7 -7z
m61 -4 c12 -18 -3 -22 -20 -5 -14 14 -14 16 -1 16 8 0 18 -5 21 -11z m105 1
c0 -5 -4 -10 -9 -10 -6 0 -13 5 -16 10 -3 6 1 10 9 10 9 0 16 -4 16 -10z m820
-5 c0 -17 -2 -18 -24 -9 -23 9 -20 24 4 24 11 0 20 -7 20 -15z m-2570 -5 c0
-5 -7 -10 -16 -10 -8 0 -12 5 -9 10 3 6 10 10 16 10 5 0 9 -4 9 -10z m1200 0
c0 -5 -7 -10 -16 -10 -8 0 -12 5 -9 10 3 6 10 10 16 10 5 0 9 -4 9 -10z m953
-4 c8 3 18 0 23 -7 5 -9 2 -10 -9 -6 -9 3 -19 2 -22 -3 -3 -4 1 -11 7 -13 8
-4 9 -6 2 -6 -7 -1 -20 11 -30 27 -13 20 -14 24 -2 14 8 -7 22 -10 31 -6z
m137 10 c0 -3 -4 -8 -10 -11 -5 -3 -10 -1 -10 4 0 6 5 11 10 11 6 0 10 -2 10
-4z m-4060 -16 c0 -5 -10 -10 -22 -10 -19 0 -20 2 -8 10 19 13 30 13 30 0z
m2243 3 c-7 -2 -19 -2 -25 0 -7 3 -2 5 12 5 14 0 19 -2 13 -5z m604 0 c-4 -3
0 -14 9 -24 10 -11 12 -19 5 -24 -6 -3 -11 2 -11 12 0 15 -2 16 -10 3 -8 -12
-10 -9 -10 13 0 15 5 27 12 27 6 0 8 -3 5 -7z m1006 0 c-7 -2 -19 -2 -25 0 -7
3 -2 5 12 5 14 0 19 -2 13 -5z m-3902 -20 c13 -16 12 -17 -3 -4 -10 7 -18 15
-18 17 0 8 8 3 21 -13z m162 10 c-7 -2 -19 -2 -25 0 -7 3 -2 5 12 5 14 0 19
-2 13 -5z m114 1 c-3 -3 -12 -4 -19 -1 -8 3 -5 6 6 6 11 1 17 -2 13 -5z m123
-15 c0 -11 -4 -18 -10 -14 -5 3 -7 12 -3 20 7 21 13 19 13 -6z m4020 1 c0 -4
-13 -7 -30 -6 -33 1 -40 12 -12 18 20 5 42 -1 42 -12z m-3690 -2 c0 -5 -26 -7
-57 -7 -32 1 -50 5 -41 8 24 9 98 7 98 -1z m1465 2 c3 -5 -1 -10 -9 -10 -9 0
-16 5 -16 10 0 6 4 10 9 10 6 0 13 -4 16 -10z m492 -12 c-3 -8 -6 -5 -6 6 -1
11 2 17 5 13 3 -3 4 -12 1 -19z m500 1 c1 -12 -3 -19 -10 -16 -17 5 -21 37 -5
37 8 0 14 -9 15 -21z m78 11 c-3 -5 -1 -10 4 -10 6 0 11 5 11 10 0 6 12 9 28
9 17 -1 21 -3 9 -6 -13 -3 -15 -8 -8 -17 8 -10 -3 -12 -49 -12 -33 1 -60 4
-60 8 0 5 8 8 18 8 14 0 15 2 2 10 -11 7 -7 10 18 10 20 0 31 -4 27 -10z
m1077 -12 c-4 -15 -5 -15 -23 0 -24 20 -24 20 4 18 17 -1 23 -6 19 -18z
m-4255 6 c-3 -3 -12 -4 -19 -1 -8 3 -5 6 6 6 11 1 17 -2 13 -5z m680 0 c-3 -3
-12 -4 -19 -1 -8 3 -5 6 6 6 11 1 17 -2 13 -5z m804 -6 c0 -10 2 -10 6 0 2 6
9 9 14 6 6 -4 6 -11 -1 -19 -9 -11 -17 -11 -35 -3 -14 6 -22 15 -19 19 8 14
34 11 35 -3z m117 -1 c12 0 22 -5 22 -10 0 -5 -7 -6 -16 -3 -9 3 -29 6 -45 6
-16 0 -29 5 -29 10 0 6 10 8 23 5 12 -3 32 -7 45 -8z m126 -2 c-4 -8 -13 -15
-22 -15 -13 0 -12 3 4 15 24 18 25 18 18 0z m416 5 c0 -5 -4 -10 -10 -10 -5 0
-10 5 -10 10 0 6 5 10 10 10 6 0 10 -4 10 -10z m233 3 c3 -5 1 -17 -4 -28 -6
-17 -8 -17 -8 -2 -1 9 -6 17 -12 17 -5 0 -7 5 -4 10 7 12 22 13 28 3z m62 -3
c3 -5 -3 -10 -15 -10 -12 0 -18 5 -15 10 3 6 10 10 15 10 5 0 12 -4 15 -10z
m108 0 c22 -1 27 -3 17 -9 -8 -4 -37 -6 -65 -3 -38 4 -45 7 -30 13 11 4 26 6
33 3 8 -2 28 -4 45 -4z m116 -2 c0 -7 -4 -22 -9 -33 -8 -19 -9 -19 -9 3 -1 12
-7 22 -13 22 -9 0 -8 4 2 10 20 13 30 12 29 -2z m281 2 c0 -5 -8 -10 -17 -10
-15 0 -16 2 -3 10 19 12 20 12 20 0z m-2513 -6 c-3 -3 -12 -4 -19 -1 -8 3 -5
6 6 6 11 1 17 -2 13 -5z m1223 2 c0 -3 -4 -8 -10 -11 -5 -3 -10 -1 -10 4 0 6
5 11 10 11 6 0 10 -2 10 -4z m137 -2 c-3 -3 -12 -4 -19 -1 -8 3 -5 6 6 6 11 1
17 -2 13 -5z m540 -1 c-7 -7 -129 -4 -136 3 -2 2 29 4 69 4 40 0 70 -3 67 -7z
m383 -3 c0 -5 -2 -10 -4 -10 -3 0 -8 5 -11 10 -3 6 -1 10 4 10 6 0 11 -4 11
-10z m600 -2 c0 -11 -38 -10 -44 1 -3 5 5 8 19 7 14 0 25 -4 25 -8z m470 8 c0
-3 -4 -8 -10 -11 -5 -3 -10 -1 -10 4 0 6 5 11 10 11 6 0 10 -2 10 -4z m-1923
-12 c-3 -3 -12 -4 -19 -1 -8 3 -5 6 6 6 11 1 17 -2 13 -5z m78 -4 c-3 -5 -11
-10 -16 -10 -6 0 -7 5 -4 10 3 6 11 10 16 10 6 0 7 -4 4 -10z m2002 4 c-3 -3
-12 -4 -19 -1 -8 3 -5 6 6 6 11 1 17 -2 13 -5z m-4033 -12 c3 -5 -1 -9 -9 -9
-8 0 -15 4 -15 9 0 4 4 8 9 8 6 0 12 -4 15 -8z m123 2 c-3 -3 -12 -4 -19 -1
-8 3 -5 6 6 6 11 1 17 -2 13 -5z m100 0 c-3 -3 -12 -4 -19 -1 -8 3 -5 6 6 6
11 1 17 -2 13 -5z m326 -1 c-7 -2 -19 -2 -25 0 -7 3 -2 5 12 5 14 0 19 -2 13
-5z m342 -3 c3 -6 -1 -7 -9 -4 -10 4 -16 1 -16 -7 0 -7 -3 -10 -6 -6 -7 7 4
27 16 27 5 0 12 -4 15 -10z m80 0 c3 -5 1 -10 -4 -10 -6 0 -11 5 -11 10 0 6 2
10 4 10 3 0 8 -4 11 -10z m1282 -4 c4 -3 -10 -5 -30 -4 -20 2 -37 6 -37 10 0
9 57 4 67 -6z m101 -2 c-2 -1 -16 -5 -31 -8 -18 -3 -27 0 -27 8 0 8 10 11 30
8 17 -2 29 -6 28 -8z m1162 -17 c0 -5 -4 -5 -10 -2 -5 3 -10 14 -10 23 0 15 2
15 10 2 5 -8 10 -19 10 -23z m334 12 c-3 -5 -10 -7 -15 -3 -5 3 -7 10 -3 15 3
5 10 7 15 3 5 -3 7 -10 3 -15z m-3924 1 c11 -8 7 -9 -15 -4 -37 8 -45 14 -19
14 10 0 26 -5 34 -10z m363 3 c-7 -2 -19 -2 -25 0 -7 3 -2 5 12 5 14 0 19 -2
13 -5z m92 -3 c3 -5 2 -10 -4 -10 -5 0 -13 5 -16 10 -3 6 -2 10 4 10 5 0 13
-4 16 -10z m2835 6 c0 -3 -4 -8 -10 -11 -5 -3 -10 -1 -10 4 0 6 5 11 10 11 6
0 10 -2 10 -4z m113 -3 c-7 -2 -19 -2 -25 0 -7 3 -2 5 12 5 14 0 19 -2 13 -5z
m305 -5 c15 -15 16 -38 0 -38 -6 0 -8 3 -5 7 8 7 -22 32 -40 33 -6 0 -9 -9 -6
-22 4 -22 4 -22 -8 -3 -7 11 -17 23 -23 27 -6 4 7 8 30 8 22 0 45 -5 52 -12z
m272 2 c0 -5 -7 -7 -15 -4 -8 4 -15 8 -15 10 0 2 7 4 15 4 8 0 15 -4 15 -10z
m283 3 c3 -5 -6 -9 -20 -10 -19 -1 -22 1 -12 8 17 11 26 11 32 2z m267 -2 c0
-11 -70 -22 -84 -13 -6 4 5 10 24 13 54 10 60 10 60 0z m-1070 -11 c0 -5 -7
-10 -16 -10 -8 0 -12 5 -9 10 3 6 10 10 16 10 5 0 9 -4 9 -10z m943 3 c-7 -2
-19 -2 -25 0 -7 3 -2 5 12 5 14 0 19 -2 13 -5z m-4310 -10 c-7 -2 -19 -2 -25
0 -7 3 -2 5 12 5 14 0 19 -2 13 -5z m3791 -8 c3 -8 1 -15 -4 -15 -6 0 -10 7
-10 15 0 8 2 15 4 15 2 0 6 -7 10 -15z m-2589 -5 c-3 -5 -12 -10 -18 -10 -7 0
-6 4 3 10 19 12 23 12 15 0z m1845 0 c0 -5 -5 -10 -11 -10 -5 0 -7 5 -4 10 3
6 8 10 11 10 2 0 4 -4 4 -10z m315 -10 c-55 -6 -59 -5 -52 7 3 5 27 6 54 3
l48 -4 -50 -6z m-985 6 c0 -2 -7 -7 -16 -10 -8 -3 -12 -2 -9 4 6 10 25 14 25
6z m88 -3 c-10 -2 -26 -2 -35 0 -10 3 -2 5 17 5 19 0 27 -2 18 -5z m108 -2
c-3 -4 -18 -6 -32 -3 -19 3 -25 1 -20 -7 4 -6 3 -11 -2 -11 -6 0 -12 7 -16 15
-4 12 3 15 35 15 22 0 38 -4 35 -9z m61 3 c-3 -3 -12 -4 -19 -1 -8 3 -5 6 6 6
11 1 17 -2 13 -5z m63 -10 c0 -8 -4 -12 -10 -9 -5 3 -10 10 -10 16 0 5 5 9 10
9 6 0 10 -7 10 -16z m480 12 c0 -3 -4 -8 -10 -11 -5 -3 -10 -1 -10 4 0 6 5 11
10 11 6 0 10 -2 10 -4z m37 -2 c-3 -3 -12 -4 -19 -1 -8 3 -5 6 6 6 11 1 17 -2
13 -5z m53 -4 c0 -5 -2 -10 -4 -10 -3 0 -8 5 -11 10 -3 6 -1 10 4 10 6 0 11
-4 11 -10z m-1040 -10 c0 -5 -4 -10 -10 -10 -5 0 -10 5 -10 10 0 6 5 10 10 10
6 0 10 -4 10 -10z m1525 -10 c3 -5 1 -10 -4 -10 -6 0 -11 5 -11 10 0 6 2 10 4
10 3 0 8 -4 11 -10z m29 -6 c3 -8 2 -12 -4 -9 -6 3 -10 10 -10 16 0 14 7 11
14 -7z m-2329 -4 c3 -5 1 -10 -4 -10 -6 0 -11 5 -11 10 0 6 2 10 4 10 3 0 8
-4 11 -10z m2403 -4 c-7 -8 -15 -12 -17 -11 -5 6 10 25 20 25 5 0 4 -6 -3 -14z
m-2961 -2 c-3 -3 -12 -4 -19 -1 -8 3 -5 6 6 6 11 1 17 -2 13 -5z m111 -1 c-10
-2 -26 -2 -35 0 -10 3 -2 5 17 5 19 0 27 -2 18 -5z m-423 -43 c8 0 15 -4 15
-8 0 -5 -22 -9 -50 -10 -50 -1 -67 11 -31 23 14 4 18 12 14 23 -4 12 0 11 16
-5 12 -13 28 -23 36 -23z m-5 30 c0 -5 -4 -10 -10 -10 -5 0 -10 5 -10 10 0 6
5 10 10 10 6 0 10 -4 10 -10z m3320 -23 c0 -5 -4 -5 -10 -2 -5 3 -10 14 -10
23 0 15 2 15 10 2 5 -8 10 -19 10 -23z m-4013 17 c-3 -3 -12 -4 -19 -1 -8 3
-5 6 6 6 11 1 17 -2 13 -5z m733 -4 c-19 -13 -30 -13 -30 0 0 6 10 10 23 10
18 0 19 -2 7 -10z m2080 -1 c0 -5 -4 -7 -10 -4 -5 3 -10 1 -10 -6 0 -7 -3 -10
-6 -6 -8 7 4 27 17 27 5 0 9 -5 9 -11z m-1167 -6 c-7 -2 -19 -2 -25 0 -7 3 -2
5 12 5 14 0 19 -2 13 -5z m254 1 c-3 -3 -12 -4 -19 -1 -8 3 -5 6 6 6 11 1 17
-2 13 -5z m1593 2 c0 -9 -39 -13 -51 -5 -10 6 -4 9 19 9 17 0 32 -2 32 -4z
m55 -14 c-3 -3 -11 0 -18 7 -9 10 -8 11 6 5 10 -3 15 -9 12 -12z m245 14 c0
-3 -4 -8 -10 -11 -5 -3 -10 -1 -10 4 0 6 5 11 10 11 6 0 10 -2 10 -4z m180 -6
c0 -5 -2 -10 -4 -10 -3 0 -8 5 -11 10 -3 6 -1 10 4 10 6 0 11 -4 11 -10z m175
0 c3 -5 1 -10 -4 -10 -6 0 -11 5 -11 10 0 6 2 10 4 10 3 0 8 -4 11 -10z
m-1824 -22 c23 3 28 1 23 -11 -6 -16 -62 -29 -70 -15 -3 4 -2 18 2 31 6 16 9
18 11 6 3 -11 12 -14 34 -11z m-1811 8 c0 -3 -4 -8 -10 -11 -5 -3 -10 -1 -10
4 0 6 5 11 10 11 6 0 10 -2 10 -4z m412 -5 c12 6 18 6 18 -1 0 -5 -4 -10 -10
-10 -5 0 -10 -7 -10 -15 0 -8 -5 -15 -11 -15 -5 0 -7 5 -4 11 4 6 -2 13 -14
16 -11 3 -18 10 -15 15 4 6 10 6 17 -1 7 -7 16 -7 29 0z m719 -2 c9 -5 -10 -9
-51 -9 -43 0 -60 3 -50 9 18 12 83 12 101 0z m174 1 c3 -5 -1 -10 -10 -10 -9
0 -13 5 -10 10 3 6 8 10 10 10 2 0 7 -4 10 -10z m165 0 c0 -5 -11 -10 -25 -10
-14 0 -25 5 -25 10 0 6 11 10 25 10 14 0 25 -4 25 -10z m460 0 c0 -5 -10 -10
-22 -9 -22 0 -22 1 -3 9 11 5 21 9 23 9 1 1 2 -3 2 -9z m-1457 -7 c-7 -2 -19
-2 -25 0 -7 3 -2 5 12 5 14 0 19 -2 13 -5z m740 0 c-7 -2 -19 -2 -25 0 -7 3
-2 5 12 5 14 0 19 -2 13 -5z m167 -15 c-11 -12 -23 -18 -27 -15 -3 4 -1 7 5 7
21 0 13 18 -10 23 -14 3 -8 5 15 6 l38 1 -21 -22z m141 3 c-12 -22 -39 -31
-66 -20 -16 6 -13 8 14 8 25 1 32 5 27 16 -4 10 1 15 15 15 16 0 18 -3 10 -19z
m99 9 c0 -5 -7 -10 -15 -10 -8 0 -15 5 -15 10 0 6 7 10 15 10 8 0 15 -4 15
-10z m354 -5 c3 -9 0 -15 -8 -15 -7 0 -13 7 -13 15 0 8 4 15 8 15 4 0 9 -7 13
-15z m331 5 c-60 -6 -63 -7 -22 -8 45 -2 46 -3 30 -20 -15 -16 -20 -17 -34 -5
-8 7 -22 13 -30 13 -11 0 -12 -2 -1 -9 10 -6 9 -10 -8 -14 -17 -4 -20 -2 -15
13 4 12 -1 19 -15 23 -11 3 -20 0 -21 -6 0 -8 -2 -8 -6 1 -3 8 -26 12 -64 12
-38 0 -58 -4 -54 -10 9 -15 -7 -12 -29 5 -18 13 0 15 160 13 129 -1 160 -3
109 -8z m218 3 c-7 -2 -21 -2 -30 0 -10 3 -4 5 12 5 17 0 24 -2 18 -5z m170 0
c-13 -2 -35 -2 -50 0 -16 2 -5 4 22 4 28 0 40 -2 28 -4z m140 0 c-7 -2 -19 -2
-25 0 -7 3 -2 5 12 5 14 0 19 -2 13 -5z m134 1 c-3 -3 -12 -4 -19 -1 -8 3 -5
6 6 6 11 1 17 -2 13 -5z m93 2 c0 -8 -48 -12 -66 -5 -13 5 -7 8 24 8 23 1 42
-1 42 -3z m236 -4 c-5 -8 -76 -4 -76 4 0 2 18 4 41 4 22 0 38 -4 35 -8z m191
1 c-20 -2 -52 -2 -70 0 -17 2 0 4 38 4 39 0 53 -2 32 -4z m-4003 -14 c-3 -6
-12 -8 -19 -5 -8 3 -16 0 -19 -7 -3 -9 -8 -8 -15 3 -7 10 -11 11 -11 3 0 -7
-5 -13 -11 -13 -8 0 -8 4 0 13 13 16 85 22 75 6z m-201 -6 c-7 -2 -21 -2 -30
0 -10 3 -4 5 12 5 17 0 24 -2 18 -5z m553 -9 c-3 -9 -6 -18 -6 -20 0 -2 -7 -4
-15 -4 -18 0 -19 12 -3 28 17 17 31 15 24 -4z m294 12 c0 -3 -4 -8 -10 -11 -5
-3 -10 -1 -10 4 0 6 5 11 10 11 6 0 10 -2 10 -4z m335 -14 c-3 -3 -11 0 -18 7
-9 10 -8 11 6 5 10 -3 15 -9 12 -12z m170 8 c-27 -12 -95 -12 -95 -1 0 5 26 9
58 9 40 0 51 -2 37 -8z m223 3 c-10 -2 -26 -2 -35 0 -10 3 -2 5 17 5 19 0 27
-2 18 -5z m227 -3 c3 -6 -1 -7 -9 -4 -18 7 -21 14 -7 14 6 0 13 -4 16 -10z
m240 0 c3 -5 -1 -10 -10 -10 -9 0 -13 5 -10 10 3 6 8 10 10 10 2 0 7 -4 10
-10z m1675 0 c12 -7 10 -9 -8 -7 -12 0 -22 5 -22 9 0 11 12 10 30 -2z m-2633
-6 c-3 -3 -12 -4 -19 -1 -8 3 -5 6 6 6 11 1 17 -2 13 -5z m850 0 c-3 -3 -12
-4 -19 -1 -8 3 -5 6 6 6 11 1 17 -2 13 -5z m60 0 c-3 -3 -12 -4 -19 -1 -8 3
-5 6 6 6 11 1 17 -2 13 -5z m2499 -2 c-7 -12 -66 -14 -66 -2 0 5 16 10 36 10
19 0 33 -4 30 -8z m139 -3 c4 -5 -22 -9 -59 -9 -36 0 -66 4 -66 9 0 13 118 12
125 0z m45 1 c0 -5 -4 -10 -9 -10 -6 0 -13 5 -16 10 -3 6 1 10 9 10 9 0 16 -4
16 -10z m165 0 c-8 -13 -105 -13 -105 -1 0 5 25 9 55 10 33 0 53 -4 50 -9z
m-4200 -10 c3 -5 1 -10 -4 -10 -6 0 -11 5 -11 10 0 6 2 10 4 10 3 0 8 -4 11
-10z m70 0 c16 -7 11 -9 -20 -9 -29 -1 -36 2 -25 9 17 11 19 11 45 0z m1632 4
c-3 -3 -12 -4 -19 -1 -8 3 -5 6 6 6 11 1 17 -2 13 -5z m206 -13 c3 -14 -1 -18
-20 -18 -18 0 -21 2 -12 8 8 5 10 9 4 9 -7 0 13 19 21 20 1 0 4 -8 7 -19z m97
9 c0 -5 -4 -10 -10 -10 -5 0 -10 5 -10 10 0 6 5 10 10 10 6 0 10 -4 10 -10z
m-1530 -16 c0 -2 -11 -4 -25 -4 -14 0 -25 4 -25 9 0 4 11 6 25 3 14 -2 25 -6
25 -8z m1178 5 c69 0 101 -4 91 -9 -9 -5 -39 -8 -68 -6 -46 2 -51 1 -52 -18 0
-20 -1 -20 -9 2 -11 25 -38 29 -46 7 -7 -18 -25 -20 -21 -3 1 6 -7 14 -18 16
-11 2 -24 9 -30 14 -7 7 -1 9 18 4 15 -3 75 -7 135 -7z m206 -4 c-4 -8 -12
-15 -20 -15 -20 0 -17 18 4 23 9 3 18 5 19 6 1 0 0 -6 -3 -14z m1211 5 c-3 -5
2 -10 12 -11 10 0 13 -3 6 -6 -20 -8 -15 -21 10 -25 12 -3 -18 -5 -68 -6 -49
-1 -91 -6 -93 -12 -3 -8 -32 12 -32 22 0 2 26 2 58 0 31 -2 68 2 82 8 20 8 21
10 4 7 -12 -3 -28 0 -35 5 -12 7 -11 9 1 7 29 -3 41 1 35 11 -3 6 1 10 10 10
9 0 13 -4 10 -10z m332 4 c-3 -3 -12 -4 -19 -1 -8 3 -5 6 6 6 11 1 17 -2 13
-5z m56 -14 c11 0 17 -3 13 -7 -8 -8 -127 -5 -135 3 -2 2 17 4 42 4 31 0 47 4
48 13 0 10 2 10 6 0 2 -7 14 -13 26 -13z m-2076 4 c-3 -3 -12 -4 -19 -1 -8 3
-5 6 6 6 11 1 17 -2 13 -5z m-1917 -8 c0 -11 -19 -15 -25 -6 -3 5 1 10 9 10 9
0 16 -2 16 -4z m475 -6 c-3 -5 -10 -10 -16 -10 -5 0 -9 5 -9 10 0 6 7 10 16
10 8 0 12 -4 9 -10z m2442 4 c-3 -3 -12 -4 -19 -1 -8 3 -5 6 6 6 11 1 17 -2
13 -5z m791 -1 c-10 -2 -26 -2 -35 0 -10 3 -2 5 17 5 19 0 27 -2 18 -5z m122
-2 c0 -5 -9 -7 -20 -4 -11 3 -20 7 -20 9 0 2 9 4 20 4 11 0 20 -4 20 -9z m256
0 c-10 -16 -41 -18 -54 -4 -11 11 -7 13 23 13 20 0 34 -4 31 -9z m44 -1 c0 -5
-7 -10 -15 -10 -8 0 -15 5 -15 10 0 6 7 10 15 10 8 0 15 -4 15 -10z m113 -1
c-24 -7 -30 -13 -26 -29 6 -24 -22 -28 -31 -5 -3 8 0 15 7 15 8 0 6 4 -3 10
-8 5 -23 7 -32 4 -10 -3 -18 -1 -18 5 0 7 26 11 68 10 57 -1 63 -2 35 -10z
m130 4 c-7 -2 -19 -2 -25 0 -7 3 -2 5 12 5 14 0 19 -2 13 -5z m-3666 -9 c-3
-3 -12 -4 -19 -1 -8 3 -5 6 6 6 11 1 17 -2 13 -5z m798 -4 c-3 -5 -12 -7 -20
-3 -21 7 -19 13 6 13 11 0 18 -4 14 -10z m69 1 c4 -5 -1 -8 -9 -7 -21 3 -31
16 -12 16 9 0 18 -4 21 -9z m93 2 c-11 -10 -56 -12 -62 -2 -4 5 11 9 31 9 21
0 34 -3 31 -7z m43 3 c0 -3 -4 -8 -10 -11 -5 -3 -10 -1 -10 4 0 6 5 11 10 11
6 0 10 -2 10 -4z m100 -6 c0 -5 -2 -10 -4 -10 -3 0 -8 5 -11 10 -3 6 -1 10 4
10 6 0 11 -4 11 -10z m60 0 c0 -12 -37 -14 -44 -2 -2 4 6 9 20 10 13 1 24 -3
24 -8z m100 -2 c0 -4 -16 -7 -35 -6 -19 1 -32 5 -29 9 6 10 64 7 64 -3z m93
-5 c-7 -2 -19 -2 -25 0 -7 3 -2 5 12 5 14 0 19 -2 13 -5z m342 -3 c3 -5 13 -7
23 -4 13 5 14 4 3 -4 -11 -8 -10 -11 5 -14 10 -3 0 -4 -23 -4 -24 0 -43 5 -43
12 0 22 24 32 35 14z m166 -8 c-7 -2 -18 1 -23 6 -8 8 -4 9 13 5 13 -4 18 -8
10 -11z m146 4 c3 -3 -12 -6 -35 -6 -22 0 -43 4 -46 9 -6 9 71 7 81 -3z m113
2 c0 -4 -12 -8 -26 -8 -14 0 -23 4 -20 8 2 4 14 8 25 8 12 0 21 -4 21 -8z
m135 0 c3 -3 -8 -5 -25 -6 -16 0 -30 3 -30 8 0 8 47 7 55 -2z m75 1 c0 -5 -14
-9 -31 -9 -16 0 -28 3 -26 8 7 10 57 12 57 1z m85 1 c3 -5 1 -10 -4 -10 -6 0
-11 5 -11 10 0 6 2 10 4 10 3 0 8 -4 11 -10z m145 0 c0 -5 -5 -10 -11 -10 -5
0 -7 5 -4 10 3 6 8 10 11 10 2 0 4 -4 4 -10z m1507 4 c-3 -3 -12 -4 -19 -1 -8
3 -5 6 6 6 11 1 17 -2 13 -5z m-2013 -19 c-4 -8 -16 -14 -28 -14 -19 1 -19 2
-2 6 15 4 16 7 5 14 -11 7 -9 9 8 9 16 0 21 -4 17 -15z m1043 9 c-3 -3 -12 -4
-19 -1 -8 3 -5 6 6 6 11 1 17 -2 13 -5z m50 0 c-3 -3 -12 -4 -19 -1 -8 3 -5 6
6 6 11 1 17 -2 13 -5z m130 -1 c-20 -2 -52 -2 -70 0 -17 2 0 4 38 4 39 0 53
-2 32 -4z m171 -11 c3 -9 -3 -13 -19 -10 -12 1 -24 9 -27 16 -3 9 3 13 19 10
12 -1 24 -9 27 -16z m127 9 l-20 -8 20 -5 c16 -5 14 -6 -7 -7 -29 -1 -46 14
-26 22 7 3 22 5 33 6 l20 0 -20 -8z m-4157 -8 c-10 -2 -28 -2 -40 0 -13 2 -5
4 17 4 22 1 32 -1 23 -4z m49 1 c-3 -3 -12 -4 -19 -1 -8 3 -5 6 6 6 11 1 17
-2 13 -5z m307 -9 c3 -8 1 -15 -4 -15 -6 0 -10 7 -10 15 0 8 2 15 4 15 2 0 6
-7 10 -15z m206 11 c0 -11 -19 -15 -25 -6 -3 5 1 10 9 10 9 0 16 -2 16 -4z
m230 -6 c0 -5 -5 -10 -11 -10 -5 0 -7 5 -4 10 3 6 8 10 11 10 2 0 4 -4 4 -10z
m127 -3 c3 -4 -17 -7 -45 -7 -29 0 -52 4 -52 10 0 11 86 8 97 -3z m153 5 c0
-4 -12 -8 -27 -9 -24 -1 -25 -1 -8 7 26 11 35 12 35 2z m220 -2 c0 -5 -8 -10
-17 -10 -15 0 -16 2 -3 10 19 12 20 12 20 0z m114 1 c3 -3 -17 -7 -42 -7 -31
-1 -40 1 -27 6 25 9 64 10 69 1z m86 -1 c0 -3 -13 -7 -30 -8 -16 -1 -30 2 -30
6 0 5 14 9 30 9 17 0 30 -3 30 -7z m40 0 c0 -5 -7 -10 -16 -10 -8 0 -12 5 -9
10 3 6 10 10 16 10 5 0 9 -4 9 -10z m216 -2 c6 -10 -83 -4 -93 6 -4 3 15 5 41
5 26 -1 49 -6 52 -11z m104 1 c0 -10 -81 -16 -86 -8 -2 4 6 9 18 11 37 5 68 3
68 -3z m140 -9 c0 -5 -9 -9 -20 -7 -31 5 -36 17 -7 17 15 0 27 -4 27 -10z m25
0 c3 -5 1 -10 -4 -10 -6 0 -11 5 -11 10 0 6 2 10 4 10 3 0 8 -4 11 -10z m145
0 c0 -5 -4 -10 -10 -10 -5 0 -10 5 -10 10 0 6 5 10 10 10 6 0 10 -4 10 -10z
m267 4 c-3 -3 -12 -4 -19 -1 -8 3 -5 6 6 6 11 1 17 -2 13 -5z m123 2 c0 -8
-51 -13 -56 -5 -3 5 9 9 25 9 17 0 31 -2 31 -4z m150 -6 c0 -5 -6 -10 -12 -11
-7 0 -4 -4 7 -9 19 -8 19 -9 -2 -9 -17 -1 -23 5 -23 19 0 11 7 20 15 20 8 0
15 -4 15 -10z m127 4 c-7 -8 -87 -7 -95 0 -3 3 19 6 48 6 29 0 51 -3 47 -6z
m190 0 c-3 -3 -12 -4 -19 -1 -8 3 -5 6 6 6 11 1 17 -2 13 -5z m56 -1 c-7 -2
-19 -2 -25 0 -7 3 -2 5 12 5 14 0 19 -2 13 -5z m140 0 c-7 -2 -19 -2 -25 0 -7
3 -2 5 12 5 14 0 19 -2 13 -5z m200 0 c-7 -2 -21 -2 -30 0 -10 3 -4 5 12 5 17
0 24 -2 18 -5z m144 1 c-3 -3 -12 -4 -19 -1 -8 3 -5 6 6 6 11 1 17 -2 13 -5z
m-792 -24 c3 -5 1 -10 -4 -10 -6 0 -11 5 -11 10 0 6 2 10 4 10 3 0 8 -4 11
-10z m315 0 c0 -5 -2 -10 -4 -10 -3 0 -8 5 -11 10 -3 6 -1 10 4 10 6 0 11 -4
11 -10z m453 3 c-7 -2 -19 -2 -25 0 -7 3 -2 5 12 5 14 0 19 -2 13 -5z m67 -3
c0 -5 -4 -10 -10 -10 -5 0 -10 5 -10 10 0 6 5 10 10 10 6 0 10 -4 10 -10z
m140 0 c0 -5 -2 -10 -4 -10 -3 0 -8 5 -11 10 -3 6 -1 10 4 10 6 0 11 -4 11
-10z m130 -4 c0 -8 6 -17 13 -19 6 -3 2 -6 -10 -6 -17 -1 -23 5 -23 19 0 11 5
20 10 20 6 0 10 -6 10 -14z m40 4 c0 -5 -4 -10 -10 -10 -5 0 -10 5 -10 10 0 6
5 10 10 10 6 0 10 -4 10 -10z m140 0 c0 -5 -4 -10 -9 -10 -6 0 -13 5 -16 10
-3 6 1 10 9 10 9 0 16 -4 16 -10z m-3015 -10 c-3 -5 -10 -10 -16 -10 -5 0 -9
5 -9 10 0 6 7 10 16 10 8 0 12 -4 9 -10z m460 0 c-3 -5 -14 -10 -23 -9 -14 0
-13 2 3 9 27 11 27 11 20 0z m55 6 c0 -2 -7 -7 -16 -10 -8 -3 -12 -2 -9 4 6
10 25 14 25 6z m130 -4 c0 -4 -11 -9 -25 -10 -14 -1 -25 3 -25 8 0 6 11 10 25
10 14 0 25 -4 25 -8z m50 -3 c0 -14 -29 -17 -34 -4 -3 9 2 13 15 12 10 -1 19
-4 19 -8z m50 7 c0 -2 -7 -9 -15 -16 -12 -10 -15 -10 -15 4 0 9 7 16 15 16 8
0 15 -2 15 -4z m76 -9 c14 -13 -4 -19 -25 -7 -14 7 -21 7 -21 0 0 -5 -4 -10
-10 -10 -5 0 -10 6 -10 14 0 14 53 17 66 3z m98 -2 c-4 -8 -10 -15 -15 -15 -5
0 -9 7 -9 15 0 8 7 15 15 15 9 0 12 -6 9 -15z m629 8 c-18 -2 -48 -2 -65 0
-18 2 -4 4 32 4 36 0 50 -2 33 -4z m187 -10 c11 3 20 1 20 -4 0 -16 -58 -10
-64 7 -5 14 -4 15 9 4 8 -7 24 -10 35 -7z m90 2 c0 -9 -9 -15 -25 -15 -22 0
-24 2 -13 15 17 19 38 19 38 0z m70 0 c0 -10 -9 -15 -27 -14 -17 1 -21 3 -10
6 9 2 17 9 17 14 0 5 5 9 10 9 6 0 10 -7 10 -15z m-2660 -5 c0 -5 -4 -10 -9
-10 -6 0 -13 5 -16 10 -3 6 1 10 9 10 9 0 16 -4 16 -10z m60 0 c-19 -13 -30
-13 -30 0 0 6 10 10 23 10 18 0 19 -2 7 -10z m47 4 c-3 -3 -12 -4 -19 -1 -8 3
-5 6 6 6 11 1 17 -2 13 -5z m80 0 c-3 -3 -12 -4 -19 -1 -8 3 -5 6 6 6 11 1 17
-2 13 -5z m429 -6 c4 -5 -15 -8 -42 -8 -27 0 -44 4 -37 8 15 9 69 9 79 0z m84
2 c0 -5 -5 -10 -11 -10 -5 0 -7 5 -4 10 3 6 8 10 11 10 2 0 4 -4 4 -10z m2840
-12 c-12 -4 -52 -5 -89 -1 l-66 8 80 5 c87 5 112 2 75 -12z m439 6 c2 -2 -5
-4 -17 -4 -12 0 -22 -4 -22 -10 0 -5 5 -10 12 -10 6 0 9 -2 6 -5 -3 -3 -20 1
-39 9 -19 7 -46 12 -61 9 -16 -2 -28 1 -28 6 0 16 131 20 149 5z m-3231 -14
c19 0 23 -3 13 -9 -21 -14 -46 -6 -48 15 -2 10 0 13 3 7 3 -7 18 -13 32 -13z
m892 16 c0 -11 -19 -15 -25 -6 -3 5 1 10 9 10 9 0 16 -2 16 -4z m120 -6 c0 -5
-2 -10 -4 -10 -3 0 -8 5 -11 10 -3 6 -1 10 4 10 6 0 11 -4 11 -10z m287 4 c-3
-3 -12 -4 -19 -1 -8 3 -5 6 6 6 11 1 17 -2 13 -5z m393 2 c0 -11 -19 -15 -25
-6 -3 5 1 10 9 10 9 0 16 -2 16 -4z m367 -2 c-3 -3 -12 -4 -19 -1 -8 3 -5 6 6
6 11 1 17 -2 13 -5z m90 0 c-3 -3 -12 -4 -19 -1 -8 3 -5 6 6 6 11 1 17 -2 13
-5z m61 -1 c-10 -2 -26 -2 -35 0 -10 3 -2 5 17 5 19 0 27 -2 18 -5z m75 0 c-7
-2 -21 -2 -30 0 -10 3 -4 5 12 5 17 0 24 -2 18 -5z m80 0 c-7 -2 -21 -2 -30 0
-10 3 -4 5 12 5 17 0 24 -2 18 -5z m50 0 c-7 -2 -19 -2 -25 0 -7 3 -2 5 12 5
14 0 19 -2 13 -5z m175 0 c-27 -2 -69 -2 -95 0 -27 2 -5 3 47 3 52 0 74 -1 48
-3z m327 -3 c-3 -5 -13 -10 -21 -10 -8 0 -14 5 -14 10 0 6 9 10 21 10 11 0 17
-4 14 -10z m-2621 -9 c4 -5 -1 -8 -9 -7 -21 3 -31 16 -12 16 9 0 18 -4 21 -9z
m1253 3 c-3 -3 -12 -4 -19 -1 -8 3 -5 6 6 6 11 1 17 -2 13 -5z m1700 -9 c0 -8
-4 -12 -9 -9 -5 3 -6 10 -3 15 9 13 12 11 12 -6z m-3187 -5 c0 -5 -4 -10 -10
-10 -5 0 -10 5 -10 10 0 6 5 10 10 10 6 0 10 -4 10 -10z m680 -7 c0 -10 -4
-14 -8 -8 -4 6 -11 13 -16 18 -5 4 -2 7 7 7 10 0 17 -8 17 -17z m70 7 c0 -5
-2 -10 -4 -10 -3 0 -8 5 -11 10 -3 6 -1 10 4 10 6 0 11 -4 11 -10z m-1593 -6
c-3 -3 -12 -4 -19 -1 -8 3 -5 6 6 6 11 1 17 -2 13 -5z m50 0 c-3 -3 -12 -4
-19 -1 -8 3 -5 6 6 6 11 1 17 -2 13 -5z m549 -20 c-12 -26 -29 -33 -19 -8 3 9
0 20 -7 24 -8 5 -3 8 12 8 23 0 24 -3 14 -24z m1184 16 c0 -5 -5 -10 -11 -10
-5 0 -7 5 -4 10 3 6 8 10 11 10 2 0 4 -4 4 -10z m1287 4 c-3 -3 -12 -4 -19 -1
-8 3 -5 6 6 6 11 1 17 -2 13 -5z m110 0 c-3 -3 -12 -4 -19 -1 -8 3 -5 6 6 6
11 1 17 -2 13 -5z m136 -1 c-7 -2 -21 -2 -30 0 -10 3 -4 5 12 5 17 0 24 -2 18
-5z m54 1 c-3 -3 -12 -4 -19 -1 -8 3 -5 6 6 6 11 1 17 -2 13 -5z m320 0 c-3
-3 -12 -4 -19 -1 -8 3 -5 6 6 6 11 1 17 -2 13 -5z m236 -1 c-7 -2 -19 -2 -25
0 -7 3 -2 5 12 5 14 0 19 -2 13 -5z m-2783 -19 c0 -2 -19 -4 -42 -4 -26 0 -38
4 -30 8 12 8 72 4 72 -4z m70 -9 c0 -8 -2 -15 -4 -15 -2 0 -6 7 -10 15 -3 8
-1 15 4 15 6 0 10 -7 10 -15z m47 9 c-3 -3 -12 -4 -19 -1 -8 3 -5 6 6 6 11 1
17 -2 13 -5z m331 -25 c-13 -8 -38 -1 -38 11 0 13 34 17 42 6 4 -6 2 -14 -4
-17z m-888 11 c0 -5 -5 -10 -11 -10 -5 0 -7 5 -4 10 3 6 8 10 11 10 2 0 4 -4
4 -10z m790 -1 c0 -5 5 -7 10 -4 6 3 10 1 10 -4 0 -14 -17 -14 -25 -1 -3 6
-17 7 -30 4 -12 -3 -26 -1 -29 5 -5 7 5 11 28 11 20 0 36 -5 36 -11z m494 -4
c3 -9 0 -15 -9 -15 -16 0 -27 14 -18 24 10 10 21 7 27 -9z m-331 -2 c-7 -2
-19 -2 -25 0 -7 3 -2 5 12 5 14 0 19 -2 13 -5z m57 3 c0 -9 -30 -14 -35 -6 -4
6 3 10 14 10 12 0 21 -2 21 -4z m73 -23 c-2 -41 -3 -43 -20 -43 -17 1 -17 1 0
11 15 9 15 12 3 25 -8 8 -19 14 -25 14 -6 0 -11 5 -11 11 0 6 12 9 27 7 21 -2
27 -8 26 -25z m47 17 c-19 -13 -30 -13 -30 0 0 6 10 10 23 10 18 0 19 -2 7
-10z m90 0 c0 -12 -8 -12 -35 0 -18 8 -17 9 8 9 15 1 27 -3 27 -9z m625 -10
c4 -6 -2 -9 -14 -7 -29 4 -39 17 -13 17 11 0 24 -5 27 -10z m645 6 c0 -2 -7
-7 -16 -10 -8 -3 -12 -2 -9 4 6 10 25 14 25 6z m838 -3 c-10 -2 -26 -2 -35 0
-10 3 -2 5 17 5 19 0 27 -2 18 -5z m-3293 -13 c-3 -5 -13 -10 -21 -10 -8 0
-12 5 -9 10 3 6 13 10 21 10 8 0 12 -4 9 -10z m132 4 c-3 -3 -12 -4 -19 -1 -8
3 -5 6 6 6 11 1 17 -2 13 -5z m1550 0 c-3 -3 -12 -4 -19 -1 -8 3 -5 6 6 6 11
1 17 -2 13 -5z m145 -25 c-31 -3 -47 -6 -34 -7 33 -3 27 -19 -7 -18 -20 1 -32
7 -35 19 -4 15 4 17 55 17 40 0 59 4 59 13 0 8 4 7 10 -3 8 -13 0 -16 -48 -21z
m-1935 15 c-3 -3 -12 -4 -19 -1 -8 3 -5 6 6 6 11 1 17 -2 13 -5z m1213 -10 c0
-2 -7 -4 -15 -4 -8 0 -15 4 -15 10 0 5 7 7 15 4 8 -4 15 -8 15 -10z m2400 12
c0 -11 -19 -15 -25 -6 -3 5 1 10 9 10 9 0 16 -2 16 -4z m47 -2 c-3 -3 -12 -4
-19 -1 -8 3 -5 6 6 6 11 1 17 -2 13 -5z m-4270 -10 c-3 -3 -12 -4 -19 -1 -8 3
-5 6 6 6 11 1 17 -2 13 -5z m163 -4 c0 -5 -8 -10 -17 -10 -15 0 -16 2 -3 10
19 12 20 12 20 0z m680 0 c-19 -13 -30 -13 -30 0 0 6 10 10 23 10 18 0 19 -2
7 -10z m1275 0 c3 -5 -3 -10 -14 -10 -12 0 -21 5 -21 10 0 6 6 10 14 10 8 0
18 -4 21 -10z m581 2 c-5 -9 -75 -6 -84 3 -3 3 16 5 42 5 26 0 45 -4 42 -8z
m391 2 c-3 -3 -12 -4 -19 -1 -8 3 -5 6 6 6 11 1 17 -2 13 -5z m250 0 c-3 -3
-12 -4 -19 -1 -8 3 -5 6 6 6 11 1 17 -2 13 -5z m-3027 -14 c0 -5 -2 -10 -4
-10 -3 0 -8 5 -11 10 -3 6 -1 10 4 10 6 0 11 -4 11 -10z m220 0 c0 -5 -7 -7
-15 -4 -8 4 -15 8 -15 10 0 2 7 4 15 4 8 0 15 -4 15 -10z m894 -5 c-4 -8 -10
-12 -15 -9 -14 8 -10 24 6 24 9 0 12 -6 9 -15z m55 -1 c-6 -8 -15 -14 -19 -14
-4 0 -10 6 -13 14 -4 9 2 14 19 14 20 0 22 -3 13 -14z m-1106 -1 c-7 -2 -19
-2 -25 0 -7 3 -2 5 12 5 14 0 19 -2 13 -5z m224 1 c-3 -3 -12 -4 -19 -1 -8 3
-5 6 6 6 11 1 17 -2 13 -5z m1218 -4 c8 -13 -5 -13 -25 0 -13 8 -13 10 2 10 9
0 20 -4 23 -10z m115 0 c0 -5 -4 -10 -10 -10 -5 0 -10 5 -10 10 0 6 5 10 10
10 6 0 10 -4 10 -10z m1360 0 c0 -5 -4 -10 -10 -10 -5 0 -10 5 -10 10 0 6 5
10 10 10 6 0 10 -4 10 -10z m60 0 c0 -5 -2 -10 -4 -10 -3 0 -8 5 -11 10 -3 6
-1 10 4 10 6 0 11 -4 11 -10z m560 6 c0 -9 -30 -14 -35 -6 -4 6 3 10 14 10 12
0 21 -2 21 -4z m93 -3 c-7 -2 -21 -2 -30 0 -10 3 -4 5 12 5 17 0 24 -2 18 -5z
m-2713 -19 c0 -8 -4 -12 -10 -9 -5 3 -10 10 -10 16 0 5 5 9 10 9 6 0 10 -7 10
-16z m223 1 c-3 -9 -8 -14 -10 -11 -3 3 -2 9 2 15 9 16 15 13 8 -4z m-1188 -5
c3 -5 1 -10 -4 -10 -6 0 -11 5 -11 10 0 6 2 10 4 10 3 0 8 -4 11 -10z m1105
-6 c0 -2 -11 -4 -25 -4 -14 0 -25 4 -25 9 0 4 11 6 25 3 14 -2 25 -6 25 -8z
m-1017 -1 c-13 -2 -33 -2 -45 0 -13 2 -3 4 22 4 25 0 35 -2 23 -4z m64 1 c-3
-3 -12 -4 -19 -1 -8 3 -5 6 6 6 11 1 17 -2 13 -5z m40 0 c-3 -3 -12 -4 -19 -1
-8 3 -5 6 6 6 11 1 17 -2 13 -5z m66 -1 c-7 -2 -19 -2 -25 0 -7 3 -2 5 12 5
14 0 19 -2 13 -5z m100 0 c-7 -2 -19 -2 -25 0 -7 3 -2 5 12 5 14 0 19 -2 13
-5z m1158 -8 c-1 -10 -61 -20 -61 -10 0 7 42 24 53 22 5 -2 8 -7 8 -12z m129
0 c0 -6 -22 -11 -50 -11 -32 -1 -50 3 -50 11 0 7 18 11 50 11 28 0 50 -5 50
-11z m1413 4 c7 -1 1 -4 -13 -8 -29 -9 -43 -4 -34 10 3 6 13 8 21 5 8 -3 20
-6 26 -7z m137 7 c0 -3 -4 -8 -10 -11 -5 -3 -10 -1 -10 4 0 6 5 11 10 11 6 0
10 -2 10 -4z m57 -2 c-3 -3 -12 -4 -19 -1 -8 3 -5 6 6 6 11 1 17 -2 13 -5z
m476 -1 c-7 -2 -19 -2 -25 0 -7 3 -2 5 12 5 14 0 19 -2 13 -5z m134 1 c-3 -3
-12 -4 -19 -1 -8 3 -5 6 6 6 11 1 17 -2 13 -5z m-1020 -10 c-3 -3 -12 -4 -19
-1 -8 3 -5 6 6 6 11 1 17 -2 13 -5z m66 -1 c-7 -2 -21 -2 -30 0 -10 3 -4 5 12
5 17 0 24 -2 18 -5z m74 1 c-3 -3 -12 -4 -19 -1 -8 3 -5 6 6 6 11 1 17 -2 13
-5z m-3160 -24 c-1 -15 -5 -16 -32 -7 -46 15 -48 22 -5 24 32 1 38 -2 37 -17z
m233 5 c0 -9 -41 -11 -47 -3 -3 7 -1 8 5 4 7 -4 12 -3 12 3 0 6 7 8 15 5 8 -4
15 -7 15 -9z m130 5 c0 -5 -5 -10 -11 -10 -5 0 -7 5 -4 10 3 6 8 10 11 10 2 0
4 -4 4 -10z m930 -12 c0 -5 -11 -8 -25 -8 -14 0 -25 3 -25 8 0 4 11 7 25 7 14
0 25 -3 25 -7z m-593 -20 c-3 -8 -6 -5 -6 6 -1 11 2 17 5 13 3 -3 4 -12 1 -19z
m58 3 c-3 -6 -11 -11 -16 -11 -5 0 -4 6 3 14 14 16 24 13 13 -3z m155 4 c0 -9
-9 -15 -21 -15 -18 0 -19 2 -9 15 7 8 16 15 21 15 5 0 9 -7 9 -15z m-235 -5
c3 -5 1 -10 -4 -10 -6 0 -11 5 -11 10 0 6 2 10 4 10 3 0 8 -4 11 -10z m171 -3
c4 -4 -5 -7 -20 -7 -15 0 -25 4 -22 9 7 10 31 9 42 -2z m2981 7 c-3 -3 -12 -4
-19 -1 -8 3 -5 6 6 6 11 1 17 -2 13 -5z m-3777 -8 c0 -3 -4 -8 -10 -11 -5 -3
-10 -1 -10 4 0 6 5 11 10 11 6 0 10 -2 10 -4z m87 -2 c-3 -3 -12 -4 -19 -1 -8
3 -5 6 6 6 11 1 17 -2 13 -5z m53 2 c0 -11 -19 -15 -25 -6 -3 5 1 10 9 10 9 0
16 -2 16 -4z m60 0 c0 -9 -40 -13 -46 -5 -3 5 6 9 20 9 14 0 26 -2 26 -4z m75
-6 c3 -5 -1 -10 -10 -10 -9 0 -13 5 -10 10 3 6 8 10 10 10 2 0 7 -4 10 -10z
m65 6 c0 -11 -19 -15 -25 -6 -3 5 1 10 9 10 9 0 16 -2 16 -4z m38 -16 c-7 -11
-17 -20 -22 -20 -5 0 -1 9 9 20 10 11 20 20 22 20 2 0 -2 -9 -9 -20z m179 14
c-3 -3 -12 -4 -19 -1 -8 3 -5 6 6 6 11 1 17 -2 13 -5z m1433 2 c0 -2 -7 -7
-16 -10 -8 -3 -12 -2 -9 4 6 10 25 14 25 6z m-2373 -12 c-3 -3 -12 -4 -19 -1
-8 3 -5 6 6 6 11 1 17 -2 13 -5z m153 2 c0 -11 -19 -15 -25 -6 -3 5 1 10 9 10
9 0 16 -2 16 -4z m696 -7 c9 -15 -11 -26 -39 -23 -12 1 -28 3 -35 3 -7 1 -10
6 -7 11 4 6 9 9 13 6 4 -2 16 0 27 5 28 11 33 11 41 -2z m887 4 c-7 -2 -19 -2
-25 0 -7 3 -2 5 12 5 14 0 19 -2 13 -5z m67 3 c0 -2 -11 -6 -25 -8 -14 -3 -25
-1 -25 3 0 5 11 9 25 9 14 0 25 -2 25 -4z m128 -27 c-9 -6 -8 -12 2 -23 18
-22 4 -34 -16 -14 -11 10 -13 21 -8 30 5 7 9 16 10 21 1 4 2 10 3 15 1 4 5 0
11 -8 6 -9 5 -17 -2 -21z m59 16 c-4 -8 -2 -17 4 -20 5 -4 7 -11 4 -16 -4 -5
5 -9 19 -9 14 0 26 4 26 8 0 5 14 9 30 10 17 0 30 -3 30 -8 0 -5 -7 -7 -15 -4
-8 4 -15 1 -15 -5 0 -6 7 -11 15 -11 8 0 15 -4 15 -10 0 -5 12 -10 27 -10 41
0 23 -8 -30 -13 -42 -4 -48 -3 -42 11 3 9 3 13 -1 9 -4 -4 -14 -1 -22 6 -13
10 -15 9 -10 -5 4 -9 1 -19 -7 -22 -9 -3 -12 0 -9 8 3 8 -7 18 -26 26 -17 7
-33 17 -37 23 -3 5 -1 7 5 3 6 -3 13 -2 16 3 4 5 2 12 -4 16 -17 11 -11 25 11
25 14 0 19 -5 16 -15z m107 1 c-6 -16 -44 -18 -44 -3 0 5 7 7 15 3 8 -3 15 -1
15 4 0 6 4 10 10 10 5 0 7 -6 4 -14z m56 4 c0 -5 -2 -10 -4 -10 -3 0 -8 5 -11
10 -3 6 -1 10 4 10 6 0 11 -4 11 -10z m-1920 -6 c0 -3 -7 -12 -15 -20 -16 -17
-18 -14 -9 10 6 15 24 23 24 10z m710 -10 c0 -2 -12 -4 -26 -4 -14 0 -23 4
-20 9 6 8 46 4 46 -5z m-640 -4 c0 -5 -2 -10 -4 -10 -3 0 -8 5 -11 10 -3 6 -1
10 4 10 6 0 11 -4 11 -10z m135 1 c-18 -7 -55 -4 -55 5 0 2 17 4 38 3 28 0 32
-2 17 -8z m192 -13 c-3 -8 -6 -5 -6 6 -1 11 2 17 5 13 3 -3 4 -12 1 -19z m348
12 c-3 -5 -10 -10 -16 -10 -5 0 -9 5 -9 10 0 6 7 10 16 10 8 0 12 -4 9 -10z
m133 5 c-10 -10 -68 -14 -68 -4 0 5 17 9 37 9 20 0 34 -2 31 -5z m59 -1 c-3
-3 -12 -4 -19 -1 -8 3 -5 6 6 6 11 1 17 -2 13 -5z m99 -1 c-10 -11 -87 -12
-80 -2 3 5 24 9 46 9 23 0 38 -3 34 -7z m164 -3 c0 -13 -20 -13 -40 0 -12 8
-9 10 13 10 15 0 27 -4 27 -10z m140 0 c0 -5 -9 -10 -19 -10 -11 0 -23 5 -26
10 -4 6 5 10 19 10 14 0 26 -4 26 -10z m154 -1 c-5 -8 1 -10 20 -7 14 3 26 2
26 -3 0 -4 2 -14 5 -22 5 -10 -1 -13 -24 -9 -18 2 -28 9 -24 15 4 6 -2 8 -15
5 -24 -7 -28 2 -10 20 15 15 31 16 22 1z m-1774 -3 c0 -2 -7 -7 -16 -10 -8 -3
-12 -2 -9 4 6 10 25 14 25 6z m744 -11 c-6 -16 -24 -21 -24 -7 0 11 11 22 21
22 5 0 6 -7 3 -15z m1196 -26 c0 -10 -65 3 -72 14 -14 22 4 26 37 9 19 -9 35
-20 35 -23z m2480 31 c0 -5 -4 -10 -10 -10 -5 0 -10 5 -10 10 0 6 5 10 10 10
6 0 10 -4 10 -10z m-4215 -10 c3 -5 -1 -10 -10 -10 -9 0 -13 5 -10 10 3 6 8
10 10 10 2 0 7 -4 10 -10z m4042 4 c-3 -3 -12 -4 -19 -1 -8 3 -5 6 6 6 11 1
17 -2 13 -5z m-3847 -8 c0 -11 -19 -15 -25 -6 -3 5 1 10 9 10 9 0 16 -2 16 -4z
m157 -2 c-3 -3 -12 -4 -19 -1 -8 3 -5 6 6 6 11 1 17 -2 13 -5z m883 -2 c0 -5
-7 -17 -15 -28 -13 -16 -14 -16 -9 -1 3 9 1 17 -4 17 -6 0 -15 -8 -21 -17 -8
-15 -12 -16 -22 -5 -11 10 -11 12 0 12 7 0 10 4 6 9 -3 5 9 12 27 14 18 2 34
5 36 5 1 1 2 -2 2 -6z m-313 -8 c-3 -3 -12 -4 -19 -1 -8 3 -5 6 6 6 11 1 17
-2 13 -5z m431 -1 c-10 -2 -28 -2 -40 0 -13 2 -5 4 17 4 22 1 32 -1 23 -4z
m2352 -13 c0 -5 -5 -10 -11 -10 -5 0 -7 5 -4 10 3 6 8 10 11 10 2 0 4 -4 4
-10z m-3493 -6 c-3 -3 -12 -4 -19 -1 -8 3 -5 6 6 6 11 1 17 -2 13 -5z m1918
-4 c3 -5 1 -10 -4 -10 -6 0 -11 5 -11 10 0 6 2 10 4 10 3 0 8 -4 11 -10z
m1458 3 c-7 -2 -19 -2 -25 0 -7 3 -2 5 12 5 14 0 19 -2 13 -5z m713 -7 c16 5
16 4 4 -5 -8 -6 -35 -10 -60 -9 -27 0 -35 3 -20 5 14 3 29 9 34 14 6 5 12 5
16 -1 4 -6 15 -8 26 -4z m-2576 -8 c0 -4 -9 -8 -21 -8 -11 0 -18 4 -15 8 7 11
36 11 36 0z m57 -10 c-3 -8 -6 -5 -6 6 -1 11 2 17 5 13 3 -3 4 -12 1 -19z m33
12 c0 -5 -4 -10 -10 -10 -5 0 -10 5 -10 10 0 6 5 10 10 10 6 0 10 -4 10 -10z
m393 3 c-7 -2 -19 -2 -25 0 -7 3 -2 5 12 5 14 0 19 -2 13 -5z m2152 -3 c3 -6
-4 -10 -17 -10 -18 0 -20 2 -8 10 19 12 18 12 25 0z m55 0 c0 -5 -4 -10 -10
-10 -5 0 -10 5 -10 10 0 6 5 10 10 10 6 0 10 -4 10 -10z m-825 -10 c3 -5 1
-10 -4 -10 -6 0 -11 5 -11 10 0 6 2 10 4 10 3 0 8 -4 11 -10z m45 -10 c0 -11
-4 -20 -10 -20 -5 0 -10 -6 -10 -14 0 -14 -21 -26 -46 -26 -8 0 -14 5 -14 10
0 6 11 10 25 10 14 0 25 5 25 10 0 6 -4 10 -10 10 -5 0 -2 9 7 20 10 11 21 20
25 20 5 0 8 -9 8 -20z m290 10 c0 -13 -11 -13 -30 0 -12 8 -11 10 8 10 12 0
22 -4 22 -10z m167 4 c-3 -3 -12 -4 -19 -1 -8 3 -5 6 6 6 11 1 17 -2 13 -5z
m-4650 -10 c-3 -3 -12 -4 -19 -1 -8 3 -5 6 6 6 11 1 17 -2 13 -5z m1717 -6
c-7 -12 -72 -10 -79 3 -5 6 9 9 39 8 24 -2 43 -6 40 -11z m876 2 c0 -5 -5 -10
-11 -10 -5 0 -7 5 -4 10 3 6 8 10 11 10 2 0 4 -4 4 -10z m103 -5 c-2 -5 -14
-10 -28 -11 -25 -1 -31 6 -18 20 10 10 48 3 46 -9z m1311 -14 c-7 -8 -35 9
-29 19 4 6 11 5 20 -3 7 -6 11 -14 9 -16z m86 5 c0 -23 -2 -24 -30 -14 -17 5
-33 14 -36 19 -3 5 6 5 20 -1 21 -7 26 -6 26 5 0 8 5 15 10 15 6 0 10 -11 10
-24z m274 14 c-6 -6 -28 -13 -50 -15 -21 -2 -30 -2 -19 1 11 3 24 10 30 15 13
13 52 12 39 -1z m-1444 -10 c0 -5 -4 -10 -10 -10 -5 0 -10 5 -10 10 0 6 5 10
10 10 6 0 10 -4 10 -10z m650 1 c0 -5 -9 -7 -20 -4 -11 3 -20 7 -20 9 0 2 9 4
20 4 11 0 20 -4 20 -9z m45 -9 c-3 -3 -11 0 -18 7 -9 10 -8 11 6 5 10 -3 15
-9 12 -12z m1290 8 c25 -11 -1 -11 -35 0 -20 6 -21 8 -5 8 11 0 29 -3 40 -8z
m-3995 -4 c0 -3 -4 -8 -10 -11 -5 -3 -10 -1 -10 4 0 6 5 11 10 11 6 0 10 -2
10 -4z m2593 -3 c-7 -2 -19 -2 -25 0 -7 3 -2 5 12 5 14 0 19 -2 13 -5z m997
-3 c0 -5 -8 -10 -17 -10 -15 0 -16 2 -3 10 19 12 20 12 20 0z m-3070 -16 c0
-2 -7 -4 -15 -4 -8 0 -15 4 -15 10 0 5 7 7 15 4 8 -4 15 -8 15 -10z m810 6 c0
-5 -10 -10 -22 -10 -19 0 -20 2 -8 10 19 13 30 13 30 0z m2647 -6 c2 -5 -5
-10 -16 -10 -11 0 -17 5 -14 14 6 14 25 12 30 -4z m-3394 -1 c-7 -2 -21 -2
-30 0 -10 3 -4 5 12 5 17 0 24 -2 18 -5z m44 1 c-3 -3 -12 -4 -19 -1 -8 3 -5
6 6 6 11 1 17 -2 13 -5z m103 -4 c0 -5 -4 -10 -10 -10 -5 0 -10 5 -10 10 0 6
5 10 10 10 6 0 10 -4 10 -10z m387 4 c-3 -3 -12 -4 -19 -1 -8 3 -5 6 6 6 11 1
17 -2 13 -5z m2363 -15 c0 -5 -7 -9 -15 -9 -9 0 -12 6 -9 15 6 15 24 11 24 -6z
m-3510 1 c0 -5 -7 -10 -16 -10 -8 0 -12 5 -9 10 3 6 10 10 16 10 5 0 9 -4 9
-10z m867 4 c-3 -3 -12 -4 -19 -1 -8 3 -5 6 6 6 11 1 17 -2 13 -5z m2903 2 c0
-3 -4 -8 -10 -11 -5 -3 -10 -1 -10 4 0 6 5 11 10 11 6 0 10 -2 10 -4z m53 -3
c-7 -2 -19 -2 -25 0 -7 3 -2 5 12 5 14 0 19 -2 13 -5z"/>
<path d="M2485 1920 c-13 -5 -14 -9 -5 -9 8 0 24 4 35 9 13 5 14 9 5 9 -8 0
-24 -4 -35 -9z"/>
<path d="M2511 1826 c-9 -11 -5 -15 21 -19 41 -6 49 0 24 19 -25 17 -31 18
-45 0z"/>
<path d="M2610 1601 c-19 -13 -10 -21 35 -28 33 -5 37 -4 33 13 -4 21 -44 30
-68 15z"/>
<path d="M3400 1142 c0 -5 7 -9 15 -9 8 0 12 4 9 9 -3 4 -9 8 -15 8 -5 0 -9
-4 -9 -8z"/>
<path d="M3570 1180 c0 -5 5 -10 11 -10 5 0 7 5 4 10 -3 6 -8 10 -11 10 -2 0
-4 -4 -4 -10z"/>
<path d="M3549 1143 c-10 -12 -6 -13 24 -11 21 1 37 7 37 14 0 16 -47 14 -61
-3z"/>
<path d="M4000 1140 c0 -5 5 -10 10 -10 6 0 10 5 10 10 0 6 -4 10 -10 10 -5 0
-10 -4 -10 -10z"/>
<path d="M4245 864 c8 -9 22 -13 30 -10 26 10 16 26 -16 26 -28 0 -29 -1 -14
-16z"/>
<path d="M750 4944 c169 -170 372 -356 381 -347 3 5 9 113 12 241 l6 232 -262
0 -262 0 125 -126z"/>
<path d="M1261 4539 c-7 -292 -19 -705 -26 -918 -7 -212 -11 -388 -9 -390 2
-2 50 6 108 18 123 25 146 26 146 7 0 -26 -64 -84 -104 -95 -41 -11 -106 -50
-106 -65 0 -4 13 -6 30 -4 16 2 32 0 34 -6 3 -7 9 -5 15 4 10 13 12 13 21 0 6
-10 10 -11 10 -2 0 20 36 49 67 56 109 24 413 24 413 0 0 -12 19 -19 43 -15
21 3 28 -61 22 -189 -4 -74 -9 -138 -11 -141 -1 -3 -10 -64 -19 -135 -8 -71
-18 -144 -21 -161 -7 -36 -34 -46 -34 -12 0 11 -4 18 -8 15 -5 -3 -7 21 -6 52
3 59 1 55 -19 -38 l-11 -55 -6 50 -6 50 -9 -43 c-12 -51 -27 -58 -36 -16 -5
21 -7 23 -9 9 -2 -12 -5 -6 -9 15 l-7 35 -8 -47 c-5 -27 -13 -48 -18 -48 -6 0
-7 11 -4 24 3 14 2 28 -4 31 -6 3 -10 -5 -10 -19 0 -14 -5 -28 -11 -32 -13 -8
-30 16 -22 30 3 5 1 6 -5 2 -8 -5 -12 4 -13 26 -1 28 -3 25 -14 -22 -18 -71
-18 -73 3 -65 28 11 241 6 265 -6 12 -7 23 -13 25 -14 6 -5 -19 -49 -42 -73
l-21 -24 28 13 c41 18 67 86 67 170 0 195 38 579 58 579 12 0 41 -44 35 -53
-3 -6 -1 -7 5 -3 7 4 12 17 12 28 0 36 9 15 19 -43 l9 -54 1 44 c1 37 3 42 16
31 10 -8 15 -32 16 -69 1 -43 3 -50 9 -31 5 16 8 -13 9 -81 1 -124 -8 -207
-20 -187 -6 8 -9 -5 -9 -34 0 -27 -4 -48 -9 -48 -5 0 -12 -12 -14 -27 -2 -16
-5 12 -6 61 0 49 -3 87 -5 85 -6 -6 -15 -87 -15 -136 -1 -24 -5 -43 -11 -43
-6 0 -11 37 -12 88 l-2 87 -6 -70 c-4 -38 -7 -64 -8 -56 -4 27 -14 2 -21 -49
-8 -64 -24 -69 -32 -10 -6 43 -6 42 -7 -17 l-2 -63 73 -1 c39 -1 86 -2 102 -3
27 -1 33 5 65 65 50 95 110 168 196 238 41 34 72 66 69 71 -3 4 5 21 18 37 13
15 31 40 40 55 10 16 33 32 57 39 62 19 119 -8 207 -98 40 -41 73 -78 73 -84
0 -5 11 -27 25 -48 40 -64 65 -153 65 -230 0 -67 1 -70 23 -65 23 5 110 13
187 17 l45 3 3 47 c2 28 -1 47 -7 47 -6 0 -11 -15 -11 -32 0 -25 -3 -29 -10
-18 -5 8 -11 51 -12 95 l-2 80 -6 -70 c-4 -52 -7 -62 -11 -40 l-6 30 -2 -30
c-1 -31 -16 -63 -25 -55 -2 3 -7 46 -11 95 -4 50 -9 92 -11 94 -2 2 -4 -35 -4
-82 0 -51 -4 -87 -10 -87 -5 0 -10 10 -10 23 0 12 -2 123 -5 247 -5 229 -2
260 14 135 l8 -70 2 84 c1 71 3 82 17 77 9 -3 19 -6 24 -6 5 0 11 -10 13 -22
2 -13 5 4 6 37 2 59 2 60 16 30 l13 -30 1 33 c1 38 15 41 36 9 17 -26 34 -286
35 -510 0 -95 4 -136 15 -157 20 -38 26 -38 18 1 -7 37 6 49 59 49 35 0 37 2
33 28 -3 15 -9 52 -14 82 l-9 55 -3 -60 c-2 -54 -3 -56 -8 -20 l-5 40 -5 -49
c-9 -76 -28 -69 -30 11 -2 37 -6 106 -10 153 l-8 85 -3 -75 -3 -75 -7 95 c-11
144 -11 292 -1 285 6 -3 11 19 13 52 2 44 7 58 18 58 8 0 18 5 22 10 5 6 8 4
9 -5 0 -10 3 -9 8 4 4 11 16 20 27 21 10 2 49 6 87 9 59 7 183 10 197 6 22 -7
95 -18 121 -19 8 -1 25 -10 38 -22 12 -12 25 -18 29 -15 3 4 12 -4 19 -16 7
-13 12 -17 13 -10 0 14 30 17 30 2 0 -5 9 -10 20 -10 50 0 -1 58 -72 82 -51
17 -68 37 -68 80 0 21 3 38 6 38 3 0 34 -7 68 -16 33 -9 84 -20 111 -24 28 -5
61 -12 75 -15 l25 -6 -7 358 c-3 197 -9 618 -13 936 l-7 577 -663 0 -662 0 -6
-367 c-4 -203 -7 -482 -7 -622 l0 -253 -22 6 c-13 3 -32 6 -42 6 -19 0 -19 14
-12 615 l7 615 -669 0 -668 0 -13 -531z m269 -324 c11 -13 6 -15 -36 -15 -44
0 -56 6 -121 58 -59 46 -73 62 -73 85 0 15 5 27 10 27 6 0 10 9 10 21 0 17 20
2 99 -70 54 -50 104 -98 111 -106z m2450 -276 c-64 -41 -218 -119 -244 -124
-28 -6 -29 -5 -16 8 8 8 67 47 130 86 104 63 116 69 130 55 13 -14 13 -17 0
-25z m-1520 -54 c0 -8 -9 -15 -20 -15 -13 0 -20 -7 -20 -20 0 -13 -5 -18 -15
-14 -18 7 -20 34 -2 35 10 0 10 2 0 6 -25 10 -12 23 22 23 24 0 35 -5 35 -15z
m95 -55 c-3 -5 -12 -10 -18 -10 -7 0 -6 4 3 10 19 12 23 12 15 0z m142 -26
c59 -28 65 -47 54 -162 -14 -148 -31 -172 -126 -170 -111 2 -149 56 -143 205
l3 77 46 27 c73 43 112 48 166 23z m-209 -8 c-10 -7 -15 -16 -11 -19 3 -4 1
-7 -5 -7 -18 0 -14 18 6 29 24 15 30 13 10 -3z m-132 -58 c3 -4 -99 -8 -225
-8 -137 0 -231 4 -231 9 0 12 449 11 456 -1z m84 2 c0 -5 -16 -10 -36 -10 -21
0 -33 4 -29 10 3 6 19 10 36 10 16 0 29 -4 29 -10z m595 0 c5 -7 -13 -10 -52
-9 -32 1 -93 -1 -135 -6 -57 -5 -78 -4 -78 5 0 7 10 10 28 6 15 -3 34 -2 42 4
20 13 187 13 195 0z m285 0 c-46 -5 -50 -7 -25 -11 24 -5 21 -6 -17 -8 -27 0
-48 2 -48 7 0 4 -38 6 -85 4 -52 -1 -85 2 -85 8 0 6 57 9 158 8 102 -1 138 -3
102 -8z m37 -16 c-3 -3 -12 -4 -19 -1 -8 3 -5 6 6 6 11 1 17 -2 13 -5z m-1902
-24 l70 -7 -75 -1 c-41 0 -95 3 -120 7 l-45 8 50 1 c28 0 82 -4 120 -8z m1995
-60 c-40 -28 -50 -31 -50 -16 0 14 17 23 50 25 13 1 13 0 0 -9z m-1315 -20
c10 -11 16 -20 13 -20 -3 0 -13 9 -23 20 -10 11 -16 20 -13 20 3 0 13 -9 23
-20z m80 -15 c30 -19 55 -37 55 -40 0 -7 -89 39 -115 59 -39 30 6 16 60 -19z
m1092 0 c-29 -26 -47 -32 -47 -16 0 13 41 41 60 41 10 -1 6 -9 -13 -25z m23
-57 c-23 -10 -45 -16 -47 -14 -8 8 71 44 81 38 6 -3 -10 -14 -34 -24z m-110 2
c-8 -5 -17 -7 -19 -4 -3 3 1 9 9 14 8 5 17 7 19 4 3 -3 -1 -9 -9 -14z m-1190
-20 c0 -11 -5 -20 -11 -20 -8 0 -8 -5 1 -15 10 -12 10 -15 -4 -15 -14 0 -21
-18 -17 -42 0 -5 -3 -8 -9 -8 -6 0 -10 27 -10 60 0 57 1 60 25 60 18 0 25 -5
25 -20z m407 -2 c-3 -8 -6 -5 -6 6 -1 11 2 17 5 13 3 -3 4 -12 1 -19z m-97
-37 c0 -42 -3 -49 -22 -55 -36 -9 -38 -8 -38 29 0 29 4 35 23 36 16 1 18 2 5
6 -28 7 -22 33 7 33 23 0 25 -3 25 -49z m114 -52 c-10 -16 -24 -9 -24 12 0 18
2 19 15 9 8 -7 12 -16 9 -21z m82 -10 c19 -22 19 -22 -3 -10 -13 6 -23 16 -23
21 0 15 5 12 26 -11z m87 -55 c-19 -30 -27 -30 -47 0 l-16 25 40 -1 c39 0 39
0 23 -24z m-27 -71 c-11 -11 -17 4 -9 23 7 18 8 18 11 1 2 -10 1 -21 -2 -24z
m631 21 c-3 -3 -12 -4 -19 -1 -8 3 -5 6 6 6 11 1 17 -2 13 -5z m-1086 -674
c-8 -70 -8 -65 -10 76 0 83 2 180 7 215 6 55 7 45 10 -76 1 -77 -2 -174 -7
-215z m47 137 c-4 -127 -18 -112 -17 18 1 90 3 113 10 90 5 -16 8 -65 7 -108z
m816 80 c4 -15 11 -25 16 -22 6 4 9 -34 8 -102 l-2 -108 -6 75 -6 75 -2 -102
c-2 -98 -14 -134 -25 -76 -8 43 -9 282 -1 295 4 7 9 8 10 3 1 -6 5 -23 8 -38z
m-45 -154 c-2 -138 -7 -131 -11 15 -2 56 0 102 4 102 4 0 7 -53 7 -117z"/>
<path d="M2551 3674 c12 -15 11 -16 -8 -10 -12 4 -24 2 -28 -4 -10 -15 -3 -20
37 -26 29 -5 35 -2 45 19 13 28 3 37 -39 37 -18 0 -19 -2 -7 -16z"/>
<path d="M2647 3683 c-11 -10 -8 -41 4 -48 5 -4 22 -4 37 0 23 6 24 8 10 16
-10 5 -15 16 -12 24 6 15 -26 22 -39 8z"/>
<path d="M2548 3576 c-22 -24 -8 -46 29 -46 14 0 21 -4 18 -10 -9 -15 24 -25
38 -11 8 8 6 11 -8 12 -11 1 -2 5 20 8 34 5 40 10 40 30 0 13 -6 26 -14 29 -9
3 -11 -1 -6 -17 6 -19 3 -21 -44 -21 -39 0 -51 4 -51 15 0 18 27 20 32 3 3 -8
11 -7 27 4 13 9 18 19 12 22 -19 12 -75 1 -93 -18z"/>
<path d="M3012 2810 c0 -14 2 -19 5 -12 2 6 2 18 0 25 -3 6 -5 1 -5 -13z"/>
<path d="M4147 4693 c3 -208 7 -379 8 -380 5 -7 435 288 520 357 55 44 178
142 272 218 132 104 173 142 173 160 l0 22 -490 0 -489 0 6 -377z"/>
<path d="M5003 4846 c-61 -44 -181 -133 -265 -197 -85 -64 -252 -183 -371
-264 l-217 -147 0 -64 c0 -35 3 -64 7 -64 15 0 148 80 290 174 83 56 267 175
409 266 141 91 258 170 261 176 2 6 2 53 1 106 l-3 96 -112 -82z"/>
<path d="M1240 3189 c12 -9 12 -10 -4 -5 -10 4 -34 2 -53 -5 -28 -9 -32 -13
-22 -25 9 -10 29 -14 68 -13 46 2 61 8 86 31 l30 28 -60 0 c-46 0 -56 -3 -45
-11z"/>
<path d="M3877 3178 c-14 -8 18 -48 40 -48 7 0 13 -4 13 -8 0 -7 28 -6 105 5
5 1 11 6 13 11 4 14 -52 32 -80 25 -17 -3 -19 -2 -9 5 10 7 2 11 -28 14 -23 2
-47 0 -54 -4z"/>
<path d="M678 2745 c-3 -3 5 -27 18 -53 41 -85 104 -224 104 -232 0 -4 -26
-10 -57 -13 -66 -6 -166 -27 -160 -33 2 -2 51 3 108 12 66 10 128 13 172 9 61
-6 79 0 60 19 -4 4 -7 26 -6 49 1 39 1 40 -7 12 -6 -21 -8 -8 -5 45 l4 75 -19
-89 c-11 -49 -22 -92 -25 -95 -3 -3 -3 33 0 79 l5 85 -18 -70 -19 -70 -14 90
-13 90 -10 -45 -11 -45 -3 42 c-2 29 -7 40 -16 37 -8 -3 -19 11 -29 36 -9 24
-21 39 -27 35 -5 -3 -14 3 -18 15 -4 11 -10 18 -14 15z"/>
<path d="M4481 2734 c0 -11 3 -14 6 -6 3 7 2 16 -1 19 -3 4 -6 -2 -5 -13z"/>
<path d="M871 2644 c0 -11 3 -14 6 -6 3 7 2 16 -1 19 -3 4 -6 -2 -5 -13z"/>
<path d="M1211 2574 c0 -11 3 -14 6 -6 3 7 2 16 -1 19 -3 4 -6 -2 -5 -13z"/>
<path d="M1381 2564 c0 -11 3 -14 6 -6 3 7 2 16 -1 19 -3 4 -6 -2 -5 -13z"/>
<path d="M1402 2501 c-7 -46 -11 -85 -8 -88 2 -3 13 -2 24 1 14 5 18 13 14 32
-3 19 -7 22 -13 12 -7 -10 -9 -9 -9 4 0 9 3 18 8 20 4 2 5 26 2 53 l-5 50 -13
-84z"/>
<path d="M1842 2555 c0 -16 2 -22 5 -12 2 9 2 23 0 30 -3 6 -5 -1 -5 -18z"/>
<path d="M989 2496 c-13 -67 -13 -75 1 -79 28 -7 36 3 31 41 l-5 37 -8 -30
c-4 -19 -5 -4 -2 38 2 37 3 67 1 67 -1 0 -9 -33 -18 -74z"/>
<path d="M1300 2503 c-6 -38 -14 -76 -17 -86 -4 -15 0 -18 21 -15 15 2 26 6
26 11 0 4 0 24 -1 45 -1 34 -2 35 -10 12 -6 -17 -7 -5 -3 38 2 34 3 62 0 62
-2 0 -9 -30 -16 -67z"/>
<path d="M1503 2503 c-6 -38 -9 -69 -8 -71 1 -1 21 0 44 4 l41 7 -1 46 -1 46
-10 -42 c-10 -46 -37 -60 -39 -20 0 21 -1 21 -9 2 -5 -12 -6 3 -3 38 8 78 -1
72 -14 -10z"/>
<path d="M957 2523 c-4 -21 -9 -53 -13 -70 -4 -21 -3 -33 4 -33 6 0 14 29 17
65 8 71 1 99 -8 38z"/>
<path d="M1092 2489 c-14 -78 -14 -76 8 -81 18 -4 20 2 19 40 l-1 27 -9 -25
c-5 -16 -6 0 -2 43 3 37 3 67 1 67 -2 0 -9 -32 -16 -71z"/>
<path d="M1161 2498 c-7 -35 -14 -71 -17 -80 -3 -11 0 -18 9 -18 11 0 16 19
20 78 2 42 4 78 2 80 -1 1 -8 -26 -14 -60z"/>
<path d="M2338 2543 c7 -3 16 -2 19 1 4 3 -2 6 -13 5 -11 0 -14 -3 -6 -6z"/>
<path d="M1197 2495 c-4 -25 -9 -56 -13 -70 -6 -24 -4 -25 39 -25 l45 0 7 66
c9 86 1 92 -15 9 -8 -43 -17 -65 -26 -65 -8 0 -14 10 -15 23 0 21 -1 21 -9 2
-5 -12 -7 4 -3 43 7 71 -1 84 -10 17z"/>
<path d="M2280 2530 c-8 -5 -13 -10 -10 -11 3 0 16 -2 28 -5 15 -3 22 0 20 8
-6 16 -20 19 -38 8z"/>
<path d="M3371 2494 l-1 -52 93 -4 c50 -3 93 -4 94 -3 2 1 -1 21 -6 46 -8 37
-9 40 -11 14 -1 -16 -4 -24 -7 -18 -3 10 -9 9 -21 -3 -15 -15 -17 -14 -28 17
l-12 34 -1 -40 c-2 -50 -20 -29 -22 25 -2 27 -3 29 -6 10 -2 -14 -15 -33 -28
-43 l-24 -17 -9 42 -10 43 -1 -51z"/>
<path d="M1362 2472 c-13 -64 -11 -85 9 -65 5 5 9 37 7 69 l-3 59 -13 -63z"/>
<path d="M1472 2508 c-1 -15 -7 -39 -12 -54 -12 -29 -6 -44 11 -27 6 6 8 32 6
59 -2 27 -4 37 -5 22z"/>
<path d="M1057 2490 c-3 -19 -9 -45 -13 -57 -4 -14 -2 -23 4 -23 6 0 14 20 17
44 8 54 1 85 -8 36z"/>
<path d="M4053 2477 c0 -32 -5 -52 -14 -57 -22 -14 2 -29 38 -23 32 5 32 5 26
52 -8 62 -13 65 -13 8 0 -65 -16 -59 -28 11 l-10 57 1 -48z"/>
<path d="M3950 2459 c0 -38 -3 -50 -10 -39 -8 12 -10 11 -10 -5 0 -13 7 -21
19 -22 18 -2 19 4 14 55 -7 74 -13 79 -13 11z"/>
<path d="M3640 2470 c-1 -29 -3 -32 -10 -15 -7 17 -9 17 -9 3 -1 -27 -31 -22
-32 5 l0 22 -11 -23 c-14 -27 -13 -28 40 -37 46 -7 50 -1 32 55 -7 23 -8 22
-10 -10z"/>
<path d="M3780 2442 c0 -30 4 -52 11 -52 7 0 8 16 3 48 -9 64 -14 66 -14 4z"/>
<path d="M3850 2450 c-1 -35 -3 -41 -10 -25 -8 19 -9 19 -9 -2 -1 -12 -7 -24
-13 -26 -7 -3 1 -6 17 -6 30 -1 31 0 27 37 -6 62 -10 69 -12 22z"/>
<path d="M4160 2456 c0 -20 -4 -35 -9 -31 -5 3 -12 1 -16 -5 -4 -6 4 -10 19
-10 23 0 24 3 19 38 -8 50 -13 53 -13 8z"/>
<path d="M3680 2445 c0 -19 4 -35 8 -35 4 0 6 16 4 35 -2 19 -6 35 -8 35 -2 0
-4 -16 -4 -35z"/>
<path d="M4690 2464 c0 -8 5 -12 10 -9 6 3 10 10 10 16 0 5 -4 9 -10 9 -5 0
-10 -7 -10 -16z"/>
<path d="M3751 2456 c0 -10 -9 -25 -18 -32 -21 -14 -13 -27 14 -22 15 2 17 9
12 38 -4 19 -7 26 -8 16z"/>
<path d="M3880 2431 c0 -23 5 -41 10 -41 6 0 10 15 10 34 0 19 -4 38 -10 41
-6 4 -10 -10 -10 -34z"/>
<path d="M3988 2430 c-2 -24 1 -40 7 -40 6 0 9 16 7 40 -2 22 -5 40 -7 40 -2
0 -5 -18 -7 -40z"/>
<path d="M540 2400 c0 -5 7 -7 15 -4 8 4 15 8 15 10 0 2 -7 4 -15 4 -8 0 -15
-4 -15 -10z"/>
<path d="M4 866 c1 -17 7 -24 19 -23 18 1 20 7 11 31 -10 25 -32 19 -30 -8z"/>
</g>
</svg>
